<svg width="480" height="280" viewBox="0 0 480 280" fill="none" xmlns="http://www.w3.org/2000/svg">
<mask id="path-1-outside-1_42_3" maskUnits="userSpaceOnUse" x="0.567627" y="0.664062" width="480" height="280" fill="black">
<rect fill="white" x="0.567627" y="0.664062" width="480" height="280"/>
<path d="M67.2236 59.9281C69.7196 59.9281 71.4476 58.5841 72.4076 55.8961C73.3676 53.1441 73.8476 48.6961 73.8476 42.5521L74.0396 19.0321C74.0396 15.6401 74.8076 13.1761 76.3436 11.6401C77.9436 10.0401 80.6636 9.24006 84.5036 9.24006C86.8716 9.24006 88.7596 9.62406 90.1676 10.3921C91.6396 11.1601 92.8876 12.6641 93.9116 14.9041C94.9356 17.1441 95.6396 20.1841 96.0236 24.0241C96.4076 27.8641 96.5996 32.9521 96.5996 39.2881C96.5996 43.0641 96.2796 46.5841 95.6396 49.8481C94.9996 53.1121 94.1356 55.9601 93.0476 58.3921C91.9596 60.8241 90.6476 63.0321 89.1116 65.0161C87.6396 66.9361 86.0716 68.5361 84.4076 69.8161C82.7436 71.0961 80.9836 72.1841 79.1276 73.0801C77.2716 73.9121 75.4476 74.5201 73.6556 74.9041C71.9276 75.2241 70.2316 75.3841 68.5676 75.3841C62.8076 75.3841 57.5916 73.5601 52.9196 69.9121C48.3116 73.6881 43.0956 75.5761 37.2716 75.5761C34.7756 75.5761 32.2796 75.2241 29.7836 74.5201C27.2876 73.7521 24.7276 72.4721 22.1036 70.6801C19.5436 68.8881 17.2716 66.6801 15.2876 64.0561C13.3036 61.3681 11.6716 57.9121 10.3916 53.6881C9.17563 49.4001 8.56763 44.6641 8.56763 39.4801C8.56763 31.0961 8.95163 24.7601 9.71963 20.4721C10.5516 16.1841 11.7676 13.2721 13.3676 11.7361C15.0316 10.2001 17.4316 9.43206 20.5676 9.43206C23.1916 9.43206 25.2716 9.81606 26.8076 10.5841C28.3436 11.2881 29.4316 12.3441 30.0716 13.7521C30.7116 15.1601 31.0316 16.9841 31.0316 19.2241L31.1276 42.6481C31.1276 48.7921 31.6076 53.2401 32.5676 55.9921C33.5276 58.7441 35.4156 60.1201 38.2316 60.1201C39.6396 60.1201 40.6956 59.5441 41.3996 58.3921C42.1036 57.1761 42.5836 55.2561 42.8396 52.6321C42.0076 48.9201 41.5916 43.1281 41.5916 35.2561C41.5916 30.8401 41.6876 27.3201 41.8796 24.6961C42.0716 22.0721 42.3596 19.8001 42.7436 17.8801C43.1276 15.9601 43.7676 14.5841 44.6636 13.7521C45.5596 12.9201 46.5516 12.3441 47.6396 12.0241C48.7916 11.6401 50.3596 11.4481 52.3436 11.4481C53.4956 11.4481 54.4876 11.4801 55.3196 11.5441C56.2156 11.6081 57.0476 11.8001 57.8156 12.1201C58.5836 12.4401 59.2236 12.7281 59.7356 12.9841C60.2476 13.2401 60.7276 13.7201 61.1756 14.4241C61.6236 15.1281 61.9756 15.7361 62.2316 16.2481C62.4876 16.7601 62.7116 17.5921 62.9036 18.7441C63.1596 19.8961 63.3196 20.9201 63.3836 21.8161C63.5116 22.6481 63.5756 23.9281 63.5756 25.6561C63.6396 27.3201 63.6716 28.7921 63.6716 30.0721C63.7356 31.2881 63.7676 33.0481 63.7676 35.3521C63.7676 43.4161 63.3516 49.3681 62.5196 53.2081C62.7756 55.5121 63.2556 57.2081 63.9596 58.2961C64.6636 59.3841 65.7516 59.9281 67.2236 59.9281Z"/>
<path d="M138.507 36.0241C141.899 36.0241 144.267 36.5681 145.611 37.6561C147.019 38.7441 147.723 40.6001 147.723 43.2241C147.723 45.4001 146.891 46.9681 145.227 47.9281C143.627 48.8241 141.099 49.2721 137.643 49.2721H122.091V59.4481L142.923 59.5441C146.507 59.5441 149.067 60.0881 150.603 61.1761C152.203 62.2001 153.003 64.0561 153.003 66.7441C153.003 69.8161 152.075 71.9601 150.219 73.1761C148.427 74.3921 145.675 75.0001 141.963 75.0001H110.859C107.083 75.0001 104.299 74.0081 102.507 72.0241C100.779 69.9761 99.9146 66.3921 99.9146 61.2721V20.7601C99.9146 13.0801 103.563 9.24006 110.859 9.24006H141.963C145.675 9.24006 148.427 9.81606 150.219 10.9681C152.075 12.1201 153.003 14.2001 153.003 17.2081C153.003 20.0241 152.203 22.0081 150.603 23.1601C149.067 24.2481 146.507 24.7921 142.923 24.7921H121.995V36.0241H138.507Z"/>
<path d="M168.063 75.0001C165.119 74.9361 162.751 74.4881 160.959 73.6561C159.167 72.7601 157.823 71.3201 156.927 69.3361C156.031 67.3521 155.583 64.6961 155.583 61.3681V20.7601C155.583 17.3681 156.575 14.6161 158.559 12.5041C160.543 10.3281 163.167 9.24006 166.431 9.24006C170.271 9.24006 173.087 9.94406 174.879 11.3521C176.735 12.7601 177.663 15.6081 177.663 19.8961V58.3921H194.079C197.791 58.3921 200.383 58.9361 201.855 60.0241C203.391 61.1121 204.159 63.3521 204.159 66.7441C204.159 70.2001 203.295 72.4401 201.567 73.4641C199.839 74.4881 197.023 75.0001 193.119 75.0001H168.063Z"/>
<path d="M238.535 27.2881C238.535 25.9441 237.959 24.7921 236.807 23.8321C235.719 22.8721 234.407 22.3921 232.871 22.3921C229.799 22.3921 227.271 24.1521 225.287 27.6721C223.303 31.1281 222.311 35.0641 222.311 39.4801C222.311 42.8721 222.951 45.9441 224.231 48.6961C225.511 51.3841 227.367 53.5281 229.799 55.1281C232.231 56.7281 235.047 57.5281 238.247 57.5281C240.615 57.5281 242.887 57.0801 245.063 56.1841C247.239 55.2241 248.999 54.2001 250.343 53.1121C251.687 51.9601 253.063 50.9361 254.471 50.0401C255.943 49.0801 257.223 48.6001 258.311 48.6001C259.719 48.6001 260.935 49.1761 261.959 50.3281C262.983 51.4161 263.495 52.5681 263.495 53.7841C263.495 55.1281 263.079 56.6961 262.247 58.4881C261.479 60.2801 260.231 62.2001 258.503 64.2481C256.775 66.2321 254.759 68.0881 252.455 69.8161C250.151 71.4801 247.271 72.8881 243.815 74.0401C240.423 75.1281 236.839 75.6721 233.063 75.6721C228.071 75.6721 223.431 74.9361 219.143 73.4641C214.919 71.9281 211.239 69.7841 208.103 67.0321C204.967 64.2161 202.503 60.6961 200.711 56.4721C198.919 52.2481 198.023 47.5121 198.023 42.2641C198.023 31.8961 201.127 23.7041 207.335 17.6881C213.543 11.6721 221.671 8.66406 231.719 8.66406C236.839 8.66406 241.575 9.52806 245.927 11.2561C250.279 12.9841 253.735 15.3841 256.295 18.4561C258.855 21.5281 260.135 24.8881 260.135 28.5361C260.135 32.7601 258.727 36.6001 255.911 40.0561C253.095 43.4481 249.447 45.1441 244.967 45.1441C242.407 45.1441 240.103 44.4401 238.055 43.0321C236.007 41.6241 234.983 39.6081 234.983 36.9841C234.983 35.7681 235.559 34.0721 236.711 31.8961C237.927 29.7201 238.535 28.1841 238.535 27.2881Z"/>
<path d="M298.746 61.5601C300.922 61.5601 302.778 60.6001 304.314 58.6801C305.914 56.7601 307.034 54.3921 307.674 51.5761C308.378 48.7601 308.73 45.7521 308.73 42.5521C308.73 39.2881 308.378 36.2161 307.674 33.3361C306.97 30.3921 305.818 27.8961 304.218 25.8481C302.682 23.8001 300.858 22.7761 298.746 22.7761C296.698 22.7761 294.906 23.8001 293.37 25.8481C291.834 27.8961 290.682 30.3921 289.914 33.3361C289.146 36.2801 288.762 39.3521 288.762 42.5521C288.762 45.7521 289.114 48.7601 289.818 51.5761C290.586 54.3921 291.738 56.7601 293.274 58.6801C294.874 60.6001 296.698 61.5601 298.746 61.5601ZM315.738 71.8321C310.682 74.3281 304.986 75.5761 298.65 75.5761C292.378 75.5761 286.714 74.3281 281.658 71.8321C276.666 69.2721 272.666 65.4641 269.658 60.4081C266.65 55.3521 265.146 49.4001 265.146 42.5521C265.146 32.1841 268.25 23.9601 274.458 17.8801C280.73 11.7361 288.826 8.66406 298.746 8.66406C308.666 8.66406 316.762 11.7361 323.034 17.8801C329.306 23.9601 332.442 32.1841 332.442 42.5521C332.442 49.4001 330.906 55.3521 327.834 60.4081C324.826 65.4641 320.794 69.2721 315.738 71.8321Z"/>
<path d="M392.316 39.8641L380.316 64.4401C379.292 66.4881 378.204 67.9601 377.052 68.8561C375.9 69.6881 374.524 70.1041 372.924 70.1041C370.876 70.1041 369.148 69.4001 367.74 67.9921C366.332 66.5201 364.508 63.8961 362.268 60.1201L351.132 39.8641V67.0321C351.132 69.7841 350.492 71.8001 349.212 73.0801C347.996 74.3601 346.14 75.0001 343.644 75.0001C340.828 75.0001 338.78 74.3921 337.5 73.1761C336.22 71.8961 335.58 69.4321 335.58 65.7841V23.9281C335.58 19.0001 336.7 15.2881 338.94 12.7921C341.18 10.2961 344.956 9.04806 350.268 9.04806C352.252 9.04806 353.98 9.40006 355.452 10.1041C356.924 10.7441 358.012 11.5121 358.716 12.4081C359.484 13.2401 360.22 14.2961 360.924 15.5761L373.788 43.7041L387.42 16.0561C389.788 11.4481 394.044 9.14406 400.188 9.14406C403.068 9.14406 405.532 9.65606 407.58 10.6801C409.628 11.6401 411.228 13.2401 412.38 15.4801C413.596 17.6561 414.204 20.4081 414.204 23.7361V65.4961C414.14 71.8321 410.14 75.0001 402.204 75.0001C399.324 75.0001 396.956 74.2321 395.1 72.6961C393.308 71.0961 392.38 68.5361 392.316 65.0161V39.8641Z"/>
<path d="M457.425 36.0241C460.817 36.0241 463.185 36.5681 464.529 37.6561C465.937 38.7441 466.641 40.6001 466.641 43.2241C466.641 45.4001 465.809 46.9681 464.145 47.9281C462.545 48.8241 460.017 49.2721 456.561 49.2721H441.009V59.4481L461.841 59.5441C465.425 59.5441 467.985 60.0881 469.521 61.1761C471.121 62.2001 471.921 64.0561 471.921 66.7441C471.921 69.8161 470.993 71.9601 469.137 73.1761C467.345 74.3921 464.593 75.0001 460.881 75.0001H429.777C426.001 75.0001 423.217 74.0081 421.425 72.0241C419.697 69.9761 418.833 66.3921 418.833 61.2721V20.7601C418.833 13.0801 422.481 9.24006 429.777 9.24006H460.881C464.593 9.24006 467.345 9.81606 469.137 10.9681C470.993 12.1201 471.921 14.2001 471.921 17.2081C471.921 20.0241 471.121 22.0081 469.521 23.1601C467.985 24.2481 465.425 24.7921 461.841 24.7921H440.913V36.0241H457.425Z"/>
<path d="M228.921 158.6C228.921 162.248 228.473 165.16 227.577 167.336C226.681 169.448 225.433 170.92 223.833 171.752C222.297 172.584 220.249 173 217.689 173C213.913 173 211.161 172.008 209.433 170.024C207.769 167.976 206.905 164.392 206.841 159.272L206.649 123.848H198.489C194.457 123.848 191.417 123.208 189.369 121.928C187.385 120.648 186.393 118.376 186.393 115.112C186.393 113.128 186.777 111.56 187.545 110.408C188.377 109.256 189.593 108.456 191.193 108.008C192.793 107.496 194.937 107.24 197.625 107.24H238.713C242.297 107.24 244.889 107.88 246.489 109.16C248.089 110.44 248.889 112.648 248.889 115.784C248.889 117.896 248.409 119.56 247.449 120.776C246.553 121.928 245.337 122.728 243.801 123.176C242.265 123.624 240.281 123.848 237.849 123.848H228.921V158.6Z"/>
<path d="M277.653 159.56C279.829 159.56 281.685 158.6 283.221 156.68C284.821 154.76 285.941 152.392 286.581 149.576C287.285 146.76 287.637 143.752 287.637 140.552C287.637 137.288 287.285 134.216 286.581 131.336C285.877 128.392 284.725 125.896 283.125 123.848C281.589 121.8 279.765 120.776 277.653 120.776C275.605 120.776 273.813 121.8 272.277 123.848C270.741 125.896 269.589 128.392 268.821 131.336C268.053 134.28 267.669 137.352 267.669 140.552C267.669 143.752 268.021 146.76 268.725 149.576C269.493 152.392 270.645 154.76 272.181 156.68C273.781 158.6 275.605 159.56 277.653 159.56ZM294.645 169.832C289.589 172.328 283.893 173.576 277.557 173.576C271.285 173.576 265.621 172.328 260.565 169.832C255.573 167.272 251.573 163.464 248.565 158.408C245.557 153.352 244.053 147.4 244.053 140.552C244.053 130.184 247.157 121.96 253.365 115.88C259.637 109.736 267.733 106.664 277.653 106.664C287.573 106.664 295.669 109.736 301.941 115.88C308.213 121.96 311.349 130.184 311.349 140.552C311.349 147.4 309.813 153.352 306.741 158.408C303.733 163.464 299.701 167.272 294.645 169.832Z"/>
<path d="M81.5464 204.568C89.1624 204.568 95.6584 206.136 101.034 209.272C106.41 212.408 109.098 215.736 109.098 219.256C109.098 220.216 108.874 221.048 108.426 221.752C108.042 222.392 107.53 222.872 106.89 223.192C106.314 223.448 105.674 223.576 104.97 223.576C103.818 223.576 102.09 223 99.7864 221.848C97.4824 220.632 94.9224 219.448 92.1064 218.296C89.2904 217.08 86.6984 216.472 84.3304 216.472C80.5544 216.472 78.6664 218.008 78.6664 221.08C78.6664 222.04 78.9544 222.968 79.5304 223.864C80.1704 224.696 81.1624 225.592 82.5064 226.552C83.8504 227.448 85.1624 228.248 86.4424 228.952C87.7224 229.656 89.4824 230.616 91.7224 231.832C93.9624 232.984 95.8504 234.008 97.3864 234.904C102.314 237.72 105.77 240.408 107.754 242.968C109.738 245.528 110.73 248.472 110.73 251.8C110.73 265.048 101.802 271.672 83.9464 271.672C80.4264 271.672 77.0024 271.32 73.6744 270.616C70.4104 269.912 67.5304 268.984 65.0344 267.832C62.6024 266.68 60.4264 265.4 58.5064 263.992C56.6504 262.584 55.2424 261.144 54.2824 259.672C53.3224 258.2 52.8424 256.824 52.8424 255.544C52.8424 254.136 53.2904 252.952 54.1864 251.992C55.1464 250.968 56.5224 250.456 58.3144 250.456C59.6584 250.456 62.8904 251.32 68.0104 253.048C73.1304 254.712 77.2584 255.544 80.3944 255.544C83.2744 255.544 84.7144 254.552 84.7144 252.568C84.7144 251.992 84.5864 251.48 84.3304 251.032C84.1384 250.52 83.7544 250.04 83.1784 249.592C82.6664 249.08 82.0584 248.632 81.3544 248.248C80.7144 247.8 79.7864 247.256 78.5704 246.616C77.4184 245.976 76.2344 245.336 75.0184 244.696C73.8664 244.056 72.3304 243.224 70.4104 242.2C68.4904 241.176 66.6344 240.152 64.8424 239.128C62.4744 237.784 60.4264 236.12 58.6984 234.136C57.0344 232.152 55.8184 230.2 55.0504 228.28C54.2824 226.296 53.8984 224.472 53.8984 222.808C53.8984 217.432 56.2984 213.048 61.0984 209.656C65.8984 206.264 72.7144 204.568 81.5464 204.568Z"/>
<path d="M176.619 256.6C176.619 261.784 175.691 265.496 173.835 267.736C171.979 269.912 169.163 271 165.387 271C161.675 271 158.955 270.008 157.227 268.024C155.499 265.976 154.635 262.392 154.635 257.272L154.539 246.424H134.955V256.6C134.955 261.848 134.059 265.56 132.267 267.736C130.475 269.912 127.627 271 123.723 271C120.011 271 117.291 270.008 115.563 268.024C113.835 265.976 112.971 262.392 112.971 257.272L112.683 216.76C112.683 212.792 113.675 209.88 115.659 208.024C117.707 206.168 120.395 205.24 123.723 205.24C127.563 205.24 130.379 205.944 132.171 207.352C134.027 208.76 134.955 211.608 134.955 215.896V232.024H154.443V216.76C154.443 214.072 154.923 211.864 155.883 210.136C156.907 208.344 158.187 207.096 159.723 206.392C161.323 205.624 163.211 205.24 165.387 205.24C169.099 205.24 171.883 205.944 173.739 207.352C175.659 208.76 176.619 211.608 176.619 215.896V256.6Z"/>
<path d="M202.757 256.6C202.757 261.592 201.829 265.24 199.973 267.544C198.117 269.848 195.301 271 191.525 271C187.813 271 185.061 270.008 183.269 268.024C181.541 266.04 180.677 262.488 180.677 257.368V216.76C180.677 209.08 184.293 205.24 191.525 205.24C195.237 205.24 198.021 205.944 199.877 207.352C201.797 208.76 202.757 211.608 202.757 215.896V256.6Z"/>
<path d="M243.486 223.768C243.486 221.08 242.43 219.256 240.318 218.296C238.27 217.272 234.814 216.76 229.95 216.76V231.448C232.958 231.448 235.39 231.224 237.246 230.776C239.166 230.328 240.67 229.56 241.758 228.472C242.91 227.32 243.486 225.752 243.486 223.768ZM244.734 249.4C244.734 247.288 244.19 245.656 243.102 244.504C242.014 243.352 240.446 242.552 238.398 242.104C236.35 241.592 233.534 241.336 229.95 241.336V257.944C234.942 257.944 238.654 257.336 241.086 256.12C243.518 254.84 244.734 252.6 244.734 249.4ZM256.542 236.824C262.494 240.344 265.47 245.048 265.47 250.936C265.47 253.496 264.958 255.96 263.934 258.328C262.974 260.632 261.502 262.744 259.518 264.664C257.598 266.584 255.038 268.12 251.838 269.272C248.638 270.36 245.022 270.904 240.99 270.904H218.718C214.814 270.904 211.998 269.912 210.27 267.928C208.606 265.944 207.774 262.392 207.774 257.272V216.664C207.774 214.488 208.158 212.568 208.926 210.904C209.694 209.24 210.91 207.896 212.574 206.872C214.302 205.848 216.35 205.336 218.718 205.336H240.702C247.102 205.4 252.414 207.16 256.638 210.616C260.926 214.008 263.07 218.392 263.07 223.768C263.07 225.496 262.91 227.032 262.59 228.376C262.334 229.656 261.918 230.808 261.342 231.832C260.766 232.856 260.094 233.752 259.326 234.52C258.558 235.288 257.63 236.056 256.542 236.824Z"/>
<path d="M327.716 216.76V245.368C327.716 254.712 325.444 261.432 320.9 265.528C316.42 269.56 308.836 271.576 298.148 271.576C287.972 271.576 280.484 269.4 275.684 265.048C270.948 260.696 268.58 254.136 268.58 245.368V216.76C268.58 213.368 269.572 210.616 271.556 208.504C273.604 206.328 276.164 205.24 279.236 205.24C283.012 205.24 285.86 205.944 287.78 207.352C289.764 208.76 290.756 211.608 290.756 215.896V247.192C290.82 249.24 291.14 250.872 291.716 252.088C292.356 253.304 293.188 254.168 294.212 254.68C295.236 255.128 296.548 255.352 298.148 255.352C299.748 255.352 301.06 255.16 302.084 254.776C303.108 254.392 303.844 253.784 304.292 252.952C304.804 252.12 305.124 251.288 305.252 250.456C305.444 249.624 305.54 248.536 305.54 247.192V215.8C305.54 213.624 305.796 211.8 306.308 210.328C306.884 208.856 307.716 207.768 308.804 207.064C309.956 206.36 311.108 205.88 312.26 205.624C313.476 205.368 314.916 205.24 316.58 205.24C320.292 205.24 323.076 206.136 324.932 207.928C326.788 209.72 327.716 212.664 327.716 216.76Z"/>
<path d="M370.753 256.6C370.753 261.784 369.825 265.496 367.969 267.736C366.113 269.912 363.265 271 359.425 271C355.713 271 352.993 270.008 351.265 268.024C349.537 265.976 348.641 262.392 348.577 257.272L348.481 241.72L333.697 224.44C331.009 221.368 329.665 218.712 329.665 216.472C329.665 212.952 331.009 210.168 333.697 208.12C336.257 206.2 338.529 205.24 340.513 205.24C343.265 205.24 345.729 206.488 347.905 208.984L359.617 222.616L369.409 211.192C372.673 207.288 376.161 205.336 379.873 205.336C382.625 205.336 384.769 206.104 386.305 207.64C388.929 210.264 390.241 212.792 390.241 215.224C390.241 216.568 389.793 218.008 388.897 219.544C388.001 221.016 386.561 222.936 384.577 225.304L370.753 242.2V256.6Z"/>
<path d="M415.31 220.888C412.558 220.888 410.51 221.688 409.166 223.288C407.886 224.888 407.246 227.736 407.246 231.832V243.16H423.182V231.64C423.182 228.952 422.862 226.808 422.222 225.208C421.582 223.544 420.686 222.424 419.534 221.848C418.446 221.208 417.038 220.888 415.31 220.888ZM423.182 256.408H407.246V261.496C407.246 264.76 406.382 267.16 404.654 268.696C402.926 270.232 399.95 271 395.726 271C393.934 271 392.462 270.744 391.31 270.232C390.158 269.72 389.134 268.856 388.238 267.64C387.406 266.424 386.766 264.664 386.318 262.36C385.934 259.992 385.614 257.176 385.358 253.912C385.166 250.584 385.07 246.392 385.07 241.336C385.07 236.92 385.518 232.888 386.414 229.24C387.374 225.528 388.622 222.392 390.158 219.832C391.758 217.272 393.55 215.032 395.534 213.112C397.518 211.128 399.662 209.592 401.966 208.504C404.334 207.416 406.606 206.616 408.782 206.104C411.022 205.528 413.262 205.24 415.502 205.24C418.19 205.24 420.846 205.624 423.47 206.392C426.094 207.096 428.75 208.344 431.438 210.136C434.126 211.928 436.462 214.168 438.446 216.856C440.494 219.48 442.158 222.904 443.438 227.128C444.718 231.352 445.358 236.088 445.358 241.336C445.358 249.784 445.038 256.056 444.398 260.152C443.822 264.184 442.798 267 441.326 268.6C439.918 270.2 437.71 271 434.702 271C430.478 271 427.502 270.232 425.774 268.696C424.046 267.16 423.182 264.76 423.182 261.496V256.408Z"/>
</mask>
<path d="M67.2236 59.9281C69.7196 59.9281 71.4476 58.5841 72.4076 55.8961C73.3676 53.1441 73.8476 48.6961 73.8476 42.5521L74.0396 19.0321C74.0396 15.6401 74.8076 13.1761 76.3436 11.6401C77.9436 10.0401 80.6636 9.24006 84.5036 9.24006C86.8716 9.24006 88.7596 9.62406 90.1676 10.3921C91.6396 11.1601 92.8876 12.6641 93.9116 14.9041C94.9356 17.1441 95.6396 20.1841 96.0236 24.0241C96.4076 27.8641 96.5996 32.9521 96.5996 39.2881C96.5996 43.0641 96.2796 46.5841 95.6396 49.8481C94.9996 53.1121 94.1356 55.9601 93.0476 58.3921C91.9596 60.8241 90.6476 63.0321 89.1116 65.0161C87.6396 66.9361 86.0716 68.5361 84.4076 69.8161C82.7436 71.0961 80.9836 72.1841 79.1276 73.0801C77.2716 73.9121 75.4476 74.5201 73.6556 74.9041C71.9276 75.2241 70.2316 75.3841 68.5676 75.3841C62.8076 75.3841 57.5916 73.5601 52.9196 69.9121C48.3116 73.6881 43.0956 75.5761 37.2716 75.5761C34.7756 75.5761 32.2796 75.2241 29.7836 74.5201C27.2876 73.7521 24.7276 72.4721 22.1036 70.6801C19.5436 68.8881 17.2716 66.6801 15.2876 64.0561C13.3036 61.3681 11.6716 57.9121 10.3916 53.6881C9.17563 49.4001 8.56763 44.6641 8.56763 39.4801C8.56763 31.0961 8.95163 24.7601 9.71963 20.4721C10.5516 16.1841 11.7676 13.2721 13.3676 11.7361C15.0316 10.2001 17.4316 9.43206 20.5676 9.43206C23.1916 9.43206 25.2716 9.81606 26.8076 10.5841C28.3436 11.2881 29.4316 12.3441 30.0716 13.7521C30.7116 15.1601 31.0316 16.9841 31.0316 19.2241L31.1276 42.6481C31.1276 48.7921 31.6076 53.2401 32.5676 55.9921C33.5276 58.7441 35.4156 60.1201 38.2316 60.1201C39.6396 60.1201 40.6956 59.5441 41.3996 58.3921C42.1036 57.1761 42.5836 55.2561 42.8396 52.6321C42.0076 48.9201 41.5916 43.1281 41.5916 35.2561C41.5916 30.8401 41.6876 27.3201 41.8796 24.6961C42.0716 22.0721 42.3596 19.8001 42.7436 17.8801C43.1276 15.9601 43.7676 14.5841 44.6636 13.7521C45.5596 12.9201 46.5516 12.3441 47.6396 12.0241C48.7916 11.6401 50.3596 11.4481 52.3436 11.4481C53.4956 11.4481 54.4876 11.4801 55.3196 11.5441C56.2156 11.6081 57.0476 11.8001 57.8156 12.1201C58.5836 12.4401 59.2236 12.7281 59.7356 12.9841C60.2476 13.2401 60.7276 13.7201 61.1756 14.4241C61.6236 15.1281 61.9756 15.7361 62.2316 16.2481C62.4876 16.7601 62.7116 17.5921 62.9036 18.7441C63.1596 19.8961 63.3196 20.9201 63.3836 21.8161C63.5116 22.6481 63.5756 23.9281 63.5756 25.6561C63.6396 27.3201 63.6716 28.7921 63.6716 30.0721C63.7356 31.2881 63.7676 33.0481 63.7676 35.3521C63.7676 43.4161 63.3516 49.3681 62.5196 53.2081C62.7756 55.5121 63.2556 57.2081 63.9596 58.2961C64.6636 59.3841 65.7516 59.9281 67.2236 59.9281Z" fill="white" fill-opacity="0.75"/>
<path d="M138.507 36.0241C141.899 36.0241 144.267 36.5681 145.611 37.6561C147.019 38.7441 147.723 40.6001 147.723 43.2241C147.723 45.4001 146.891 46.9681 145.227 47.9281C143.627 48.8241 141.099 49.2721 137.643 49.2721H122.091V59.4481L142.923 59.5441C146.507 59.5441 149.067 60.0881 150.603 61.1761C152.203 62.2001 153.003 64.0561 153.003 66.7441C153.003 69.8161 152.075 71.9601 150.219 73.1761C148.427 74.3921 145.675 75.0001 141.963 75.0001H110.859C107.083 75.0001 104.299 74.0081 102.507 72.0241C100.779 69.9761 99.9146 66.3921 99.9146 61.2721V20.7601C99.9146 13.0801 103.563 9.24006 110.859 9.24006H141.963C145.675 9.24006 148.427 9.81606 150.219 10.9681C152.075 12.1201 153.003 14.2001 153.003 17.2081C153.003 20.0241 152.203 22.0081 150.603 23.1601C149.067 24.2481 146.507 24.7921 142.923 24.7921H121.995V36.0241H138.507Z" fill="white" fill-opacity="0.75"/>
<path d="M168.063 75.0001C165.119 74.9361 162.751 74.4881 160.959 73.6561C159.167 72.7601 157.823 71.3201 156.927 69.3361C156.031 67.3521 155.583 64.6961 155.583 61.3681V20.7601C155.583 17.3681 156.575 14.6161 158.559 12.5041C160.543 10.3281 163.167 9.24006 166.431 9.24006C170.271 9.24006 173.087 9.94406 174.879 11.3521C176.735 12.7601 177.663 15.6081 177.663 19.8961V58.3921H194.079C197.791 58.3921 200.383 58.9361 201.855 60.0241C203.391 61.1121 204.159 63.3521 204.159 66.7441C204.159 70.2001 203.295 72.4401 201.567 73.4641C199.839 74.4881 197.023 75.0001 193.119 75.0001H168.063Z" fill="white" fill-opacity="0.75"/>
<path d="M238.535 27.2881C238.535 25.9441 237.959 24.7921 236.807 23.8321C235.719 22.8721 234.407 22.3921 232.871 22.3921C229.799 22.3921 227.271 24.1521 225.287 27.6721C223.303 31.1281 222.311 35.0641 222.311 39.4801C222.311 42.8721 222.951 45.9441 224.231 48.6961C225.511 51.3841 227.367 53.5281 229.799 55.1281C232.231 56.7281 235.047 57.5281 238.247 57.5281C240.615 57.5281 242.887 57.0801 245.063 56.1841C247.239 55.2241 248.999 54.2001 250.343 53.1121C251.687 51.9601 253.063 50.9361 254.471 50.0401C255.943 49.0801 257.223 48.6001 258.311 48.6001C259.719 48.6001 260.935 49.1761 261.959 50.3281C262.983 51.4161 263.495 52.5681 263.495 53.7841C263.495 55.1281 263.079 56.6961 262.247 58.4881C261.479 60.2801 260.231 62.2001 258.503 64.2481C256.775 66.2321 254.759 68.0881 252.455 69.8161C250.151 71.4801 247.271 72.8881 243.815 74.0401C240.423 75.1281 236.839 75.6721 233.063 75.6721C228.071 75.6721 223.431 74.9361 219.143 73.4641C214.919 71.9281 211.239 69.7841 208.103 67.0321C204.967 64.2161 202.503 60.6961 200.711 56.4721C198.919 52.2481 198.023 47.5121 198.023 42.2641C198.023 31.8961 201.127 23.7041 207.335 17.6881C213.543 11.6721 221.671 8.66406 231.719 8.66406C236.839 8.66406 241.575 9.52806 245.927 11.2561C250.279 12.9841 253.735 15.3841 256.295 18.4561C258.855 21.5281 260.135 24.8881 260.135 28.5361C260.135 32.7601 258.727 36.6001 255.911 40.0561C253.095 43.4481 249.447 45.1441 244.967 45.1441C242.407 45.1441 240.103 44.4401 238.055 43.0321C236.007 41.6241 234.983 39.6081 234.983 36.9841C234.983 35.7681 235.559 34.0721 236.711 31.8961C237.927 29.7201 238.535 28.1841 238.535 27.2881Z" fill="white" fill-opacity="0.75"/>
<path d="M298.746 61.5601C300.922 61.5601 302.778 60.6001 304.314 58.6801C305.914 56.7601 307.034 54.3921 307.674 51.5761C308.378 48.7601 308.73 45.7521 308.73 42.5521C308.73 39.2881 308.378 36.2161 307.674 33.3361C306.97 30.3921 305.818 27.8961 304.218 25.8481C302.682 23.8001 300.858 22.7761 298.746 22.7761C296.698 22.7761 294.906 23.8001 293.37 25.8481C291.834 27.8961 290.682 30.3921 289.914 33.3361C289.146 36.2801 288.762 39.3521 288.762 42.5521C288.762 45.7521 289.114 48.7601 289.818 51.5761C290.586 54.3921 291.738 56.7601 293.274 58.6801C294.874 60.6001 296.698 61.5601 298.746 61.5601ZM315.738 71.8321C310.682 74.3281 304.986 75.5761 298.65 75.5761C292.378 75.5761 286.714 74.3281 281.658 71.8321C276.666 69.2721 272.666 65.4641 269.658 60.4081C266.65 55.3521 265.146 49.4001 265.146 42.5521C265.146 32.1841 268.25 23.9601 274.458 17.8801C280.73 11.7361 288.826 8.66406 298.746 8.66406C308.666 8.66406 316.762 11.7361 323.034 17.8801C329.306 23.9601 332.442 32.1841 332.442 42.5521C332.442 49.4001 330.906 55.3521 327.834 60.4081C324.826 65.4641 320.794 69.2721 315.738 71.8321Z" fill="white" fill-opacity="0.75"/>
<path d="M392.316 39.8641L380.316 64.4401C379.292 66.4881 378.204 67.9601 377.052 68.8561C375.9 69.6881 374.524 70.1041 372.924 70.1041C370.876 70.1041 369.148 69.4001 367.74 67.9921C366.332 66.5201 364.508 63.8961 362.268 60.1201L351.132 39.8641V67.0321C351.132 69.7841 350.492 71.8001 349.212 73.0801C347.996 74.3601 346.14 75.0001 343.644 75.0001C340.828 75.0001 338.78 74.3921 337.5 73.1761C336.22 71.8961 335.58 69.4321 335.58 65.7841V23.9281C335.58 19.0001 336.7 15.2881 338.94 12.7921C341.18 10.2961 344.956 9.04806 350.268 9.04806C352.252 9.04806 353.98 9.40006 355.452 10.1041C356.924 10.7441 358.012 11.5121 358.716 12.4081C359.484 13.2401 360.22 14.2961 360.924 15.5761L373.788 43.7041L387.42 16.0561C389.788 11.4481 394.044 9.14406 400.188 9.14406C403.068 9.14406 405.532 9.65606 407.58 10.6801C409.628 11.6401 411.228 13.2401 412.38 15.4801C413.596 17.6561 414.204 20.4081 414.204 23.7361V65.4961C414.14 71.8321 410.14 75.0001 402.204 75.0001C399.324 75.0001 396.956 74.2321 395.1 72.6961C393.308 71.0961 392.38 68.5361 392.316 65.0161V39.8641Z" fill="white" fill-opacity="0.75"/>
<path d="M457.425 36.0241C460.817 36.0241 463.185 36.5681 464.529 37.6561C465.937 38.7441 466.641 40.6001 466.641 43.2241C466.641 45.4001 465.809 46.9681 464.145 47.9281C462.545 48.8241 460.017 49.2721 456.561 49.2721H441.009V59.4481L461.841 59.5441C465.425 59.5441 467.985 60.0881 469.521 61.1761C471.121 62.2001 471.921 64.0561 471.921 66.7441C471.921 69.8161 470.993 71.9601 469.137 73.1761C467.345 74.3921 464.593 75.0001 460.881 75.0001H429.777C426.001 75.0001 423.217 74.0081 421.425 72.0241C419.697 69.9761 418.833 66.3921 418.833 61.2721V20.7601C418.833 13.0801 422.481 9.24006 429.777 9.24006H460.881C464.593 9.24006 467.345 9.81606 469.137 10.9681C470.993 12.1201 471.921 14.2001 471.921 17.2081C471.921 20.0241 471.121 22.0081 469.521 23.1601C467.985 24.2481 465.425 24.7921 461.841 24.7921H440.913V36.0241H457.425Z" fill="white" fill-opacity="0.75"/>
<path d="M228.921 158.6C228.921 162.248 228.473 165.16 227.577 167.336C226.681 169.448 225.433 170.92 223.833 171.752C222.297 172.584 220.249 173 217.689 173C213.913 173 211.161 172.008 209.433 170.024C207.769 167.976 206.905 164.392 206.841 159.272L206.649 123.848H198.489C194.457 123.848 191.417 123.208 189.369 121.928C187.385 120.648 186.393 118.376 186.393 115.112C186.393 113.128 186.777 111.56 187.545 110.408C188.377 109.256 189.593 108.456 191.193 108.008C192.793 107.496 194.937 107.24 197.625 107.24H238.713C242.297 107.24 244.889 107.88 246.489 109.16C248.089 110.44 248.889 112.648 248.889 115.784C248.889 117.896 248.409 119.56 247.449 120.776C246.553 121.928 245.337 122.728 243.801 123.176C242.265 123.624 240.281 123.848 237.849 123.848H228.921V158.6Z" fill="white" fill-opacity="0.75"/>
<path d="M277.653 159.56C279.829 159.56 281.685 158.6 283.221 156.68C284.821 154.76 285.941 152.392 286.581 149.576C287.285 146.76 287.637 143.752 287.637 140.552C287.637 137.288 287.285 134.216 286.581 131.336C285.877 128.392 284.725 125.896 283.125 123.848C281.589 121.8 279.765 120.776 277.653 120.776C275.605 120.776 273.813 121.8 272.277 123.848C270.741 125.896 269.589 128.392 268.821 131.336C268.053 134.28 267.669 137.352 267.669 140.552C267.669 143.752 268.021 146.76 268.725 149.576C269.493 152.392 270.645 154.76 272.181 156.68C273.781 158.6 275.605 159.56 277.653 159.56ZM294.645 169.832C289.589 172.328 283.893 173.576 277.557 173.576C271.285 173.576 265.621 172.328 260.565 169.832C255.573 167.272 251.573 163.464 248.565 158.408C245.557 153.352 244.053 147.4 244.053 140.552C244.053 130.184 247.157 121.96 253.365 115.88C259.637 109.736 267.733 106.664 277.653 106.664C287.573 106.664 295.669 109.736 301.941 115.88C308.213 121.96 311.349 130.184 311.349 140.552C311.349 147.4 309.813 153.352 306.741 158.408C303.733 163.464 299.701 167.272 294.645 169.832Z" fill="white" fill-opacity="0.75"/>
<path d="M81.5464 204.568C89.1624 204.568 95.6584 206.136 101.034 209.272C106.41 212.408 109.098 215.736 109.098 219.256C109.098 220.216 108.874 221.048 108.426 221.752C108.042 222.392 107.53 222.872 106.89 223.192C106.314 223.448 105.674 223.576 104.97 223.576C103.818 223.576 102.09 223 99.7864 221.848C97.4824 220.632 94.9224 219.448 92.1064 218.296C89.2904 217.08 86.6984 216.472 84.3304 216.472C80.5544 216.472 78.6664 218.008 78.6664 221.08C78.6664 222.04 78.9544 222.968 79.5304 223.864C80.1704 224.696 81.1624 225.592 82.5064 226.552C83.8504 227.448 85.1624 228.248 86.4424 228.952C87.7224 229.656 89.4824 230.616 91.7224 231.832C93.9624 232.984 95.8504 234.008 97.3864 234.904C102.314 237.72 105.77 240.408 107.754 242.968C109.738 245.528 110.73 248.472 110.73 251.8C110.73 265.048 101.802 271.672 83.9464 271.672C80.4264 271.672 77.0024 271.32 73.6744 270.616C70.4104 269.912 67.5304 268.984 65.0344 267.832C62.6024 266.68 60.4264 265.4 58.5064 263.992C56.6504 262.584 55.2424 261.144 54.2824 259.672C53.3224 258.2 52.8424 256.824 52.8424 255.544C52.8424 254.136 53.2904 252.952 54.1864 251.992C55.1464 250.968 56.5224 250.456 58.3144 250.456C59.6584 250.456 62.8904 251.32 68.0104 253.048C73.1304 254.712 77.2584 255.544 80.3944 255.544C83.2744 255.544 84.7144 254.552 84.7144 252.568C84.7144 251.992 84.5864 251.48 84.3304 251.032C84.1384 250.52 83.7544 250.04 83.1784 249.592C82.6664 249.08 82.0584 248.632 81.3544 248.248C80.7144 247.8 79.7864 247.256 78.5704 246.616C77.4184 245.976 76.2344 245.336 75.0184 244.696C73.8664 244.056 72.3304 243.224 70.4104 242.2C68.4904 241.176 66.6344 240.152 64.8424 239.128C62.4744 237.784 60.4264 236.12 58.6984 234.136C57.0344 232.152 55.8184 230.2 55.0504 228.28C54.2824 226.296 53.8984 224.472 53.8984 222.808C53.8984 217.432 56.2984 213.048 61.0984 209.656C65.8984 206.264 72.7144 204.568 81.5464 204.568Z" fill="white" fill-opacity="0.75"/>
<path d="M176.619 256.6C176.619 261.784 175.691 265.496 173.835 267.736C171.979 269.912 169.163 271 165.387 271C161.675 271 158.955 270.008 157.227 268.024C155.499 265.976 154.635 262.392 154.635 257.272L154.539 246.424H134.955V256.6C134.955 261.848 134.059 265.56 132.267 267.736C130.475 269.912 127.627 271 123.723 271C120.011 271 117.291 270.008 115.563 268.024C113.835 265.976 112.971 262.392 112.971 257.272L112.683 216.76C112.683 212.792 113.675 209.88 115.659 208.024C117.707 206.168 120.395 205.24 123.723 205.24C127.563 205.24 130.379 205.944 132.171 207.352C134.027 208.76 134.955 211.608 134.955 215.896V232.024H154.443V216.76C154.443 214.072 154.923 211.864 155.883 210.136C156.907 208.344 158.187 207.096 159.723 206.392C161.323 205.624 163.211 205.24 165.387 205.24C169.099 205.24 171.883 205.944 173.739 207.352C175.659 208.76 176.619 211.608 176.619 215.896V256.6Z" fill="white" fill-opacity="0.75"/>
<path d="M202.757 256.6C202.757 261.592 201.829 265.24 199.973 267.544C198.117 269.848 195.301 271 191.525 271C187.813 271 185.061 270.008 183.269 268.024C181.541 266.04 180.677 262.488 180.677 257.368V216.76C180.677 209.08 184.293 205.24 191.525 205.24C195.237 205.24 198.021 205.944 199.877 207.352C201.797 208.76 202.757 211.608 202.757 215.896V256.6Z" fill="white" fill-opacity="0.75"/>
<path d="M243.486 223.768C243.486 221.08 242.43 219.256 240.318 218.296C238.27 217.272 234.814 216.76 229.95 216.76V231.448C232.958 231.448 235.39 231.224 237.246 230.776C239.166 230.328 240.67 229.56 241.758 228.472C242.91 227.32 243.486 225.752 243.486 223.768ZM244.734 249.4C244.734 247.288 244.19 245.656 243.102 244.504C242.014 243.352 240.446 242.552 238.398 242.104C236.35 241.592 233.534 241.336 229.95 241.336V257.944C234.942 257.944 238.654 257.336 241.086 256.12C243.518 254.84 244.734 252.6 244.734 249.4ZM256.542 236.824C262.494 240.344 265.47 245.048 265.47 250.936C265.47 253.496 264.958 255.96 263.934 258.328C262.974 260.632 261.502 262.744 259.518 264.664C257.598 266.584 255.038 268.12 251.838 269.272C248.638 270.36 245.022 270.904 240.99 270.904H218.718C214.814 270.904 211.998 269.912 210.27 267.928C208.606 265.944 207.774 262.392 207.774 257.272V216.664C207.774 214.488 208.158 212.568 208.926 210.904C209.694 209.24 210.91 207.896 212.574 206.872C214.302 205.848 216.35 205.336 218.718 205.336H240.702C247.102 205.4 252.414 207.16 256.638 210.616C260.926 214.008 263.07 218.392 263.07 223.768C263.07 225.496 262.91 227.032 262.59 228.376C262.334 229.656 261.918 230.808 261.342 231.832C260.766 232.856 260.094 233.752 259.326 234.52C258.558 235.288 257.63 236.056 256.542 236.824Z" fill="white" fill-opacity="0.75"/>
<path d="M327.716 216.76V245.368C327.716 254.712 325.444 261.432 320.9 265.528C316.42 269.56 308.836 271.576 298.148 271.576C287.972 271.576 280.484 269.4 275.684 265.048C270.948 260.696 268.58 254.136 268.58 245.368V216.76C268.58 213.368 269.572 210.616 271.556 208.504C273.604 206.328 276.164 205.24 279.236 205.24C283.012 205.24 285.86 205.944 287.78 207.352C289.764 208.76 290.756 211.608 290.756 215.896V247.192C290.82 249.24 291.14 250.872 291.716 252.088C292.356 253.304 293.188 254.168 294.212 254.68C295.236 255.128 296.548 255.352 298.148 255.352C299.748 255.352 301.06 255.16 302.084 254.776C303.108 254.392 303.844 253.784 304.292 252.952C304.804 252.12 305.124 251.288 305.252 250.456C305.444 249.624 305.54 248.536 305.54 247.192V215.8C305.54 213.624 305.796 211.8 306.308 210.328C306.884 208.856 307.716 207.768 308.804 207.064C309.956 206.36 311.108 205.88 312.26 205.624C313.476 205.368 314.916 205.24 316.58 205.24C320.292 205.24 323.076 206.136 324.932 207.928C326.788 209.72 327.716 212.664 327.716 216.76Z" fill="white" fill-opacity="0.75"/>
<path d="M370.753 256.6C370.753 261.784 369.825 265.496 367.969 267.736C366.113 269.912 363.265 271 359.425 271C355.713 271 352.993 270.008 351.265 268.024C349.537 265.976 348.641 262.392 348.577 257.272L348.481 241.72L333.697 224.44C331.009 221.368 329.665 218.712 329.665 216.472C329.665 212.952 331.009 210.168 333.697 208.12C336.257 206.2 338.529 205.24 340.513 205.24C343.265 205.24 345.729 206.488 347.905 208.984L359.617 222.616L369.409 211.192C372.673 207.288 376.161 205.336 379.873 205.336C382.625 205.336 384.769 206.104 386.305 207.64C388.929 210.264 390.241 212.792 390.241 215.224C390.241 216.568 389.793 218.008 388.897 219.544C388.001 221.016 386.561 222.936 384.577 225.304L370.753 242.2V256.6Z" fill="white" fill-opacity="0.75"/>
<path d="M415.31 220.888C412.558 220.888 410.51 221.688 409.166 223.288C407.886 224.888 407.246 227.736 407.246 231.832V243.16H423.182V231.64C423.182 228.952 422.862 226.808 422.222 225.208C421.582 223.544 420.686 222.424 419.534 221.848C418.446 221.208 417.038 220.888 415.31 220.888ZM423.182 256.408H407.246V261.496C407.246 264.76 406.382 267.16 404.654 268.696C402.926 270.232 399.95 271 395.726 271C393.934 271 392.462 270.744 391.31 270.232C390.158 269.72 389.134 268.856 388.238 267.64C387.406 266.424 386.766 264.664 386.318 262.36C385.934 259.992 385.614 257.176 385.358 253.912C385.166 250.584 385.07 246.392 385.07 241.336C385.07 236.92 385.518 232.888 386.414 229.24C387.374 225.528 388.622 222.392 390.158 219.832C391.758 217.272 393.55 215.032 395.534 213.112C397.518 211.128 399.662 209.592 401.966 208.504C404.334 207.416 406.606 206.616 408.782 206.104C411.022 205.528 413.262 205.24 415.502 205.24C418.19 205.24 420.846 205.624 423.47 206.392C426.094 207.096 428.75 208.344 431.438 210.136C434.126 211.928 436.462 214.168 438.446 216.856C440.494 219.48 442.158 222.904 443.438 227.128C444.718 231.352 445.358 236.088 445.358 241.336C445.358 249.784 445.038 256.056 444.398 260.152C443.822 264.184 442.798 267 441.326 268.6C439.918 270.2 437.71 271 434.702 271C430.478 271 427.502 270.232 425.774 268.696C424.046 267.16 423.182 264.76 423.182 261.496V256.408Z" fill="white" fill-opacity="0.75"/>
<path d="M67.2236 59.9281C69.7196 59.9281 71.4476 58.5841 72.4076 55.8961C73.3676 53.1441 73.8476 48.6961 73.8476 42.5521L74.0396 19.0321C74.0396 15.6401 74.8076 13.1761 76.3436 11.6401C77.9436 10.0401 80.6636 9.24006 84.5036 9.24006C86.8716 9.24006 88.7596 9.62406 90.1676 10.3921C91.6396 11.1601 92.8876 12.6641 93.9116 14.9041C94.9356 17.1441 95.6396 20.1841 96.0236 24.0241C96.4076 27.8641 96.5996 32.9521 96.5996 39.2881C96.5996 43.0641 96.2796 46.5841 95.6396 49.8481C94.9996 53.1121 94.1356 55.9601 93.0476 58.3921C91.9596 60.8241 90.6476 63.0321 89.1116 65.0161C87.6396 66.9361 86.0716 68.5361 84.4076 69.8161C82.7436 71.0961 80.9836 72.1841 79.1276 73.0801C77.2716 73.9121 75.4476 74.5201 73.6556 74.9041C71.9276 75.2241 70.2316 75.3841 68.5676 75.3841C62.8076 75.3841 57.5916 73.5601 52.9196 69.9121C48.3116 73.6881 43.0956 75.5761 37.2716 75.5761C34.7756 75.5761 32.2796 75.2241 29.7836 74.5201C27.2876 73.7521 24.7276 72.4721 22.1036 70.6801C19.5436 68.8881 17.2716 66.6801 15.2876 64.0561C13.3036 61.3681 11.6716 57.9121 10.3916 53.6881C9.17563 49.4001 8.56763 44.6641 8.56763 39.4801C8.56763 31.0961 8.95163 24.7601 9.71963 20.4721C10.5516 16.1841 11.7676 13.2721 13.3676 11.7361C15.0316 10.2001 17.4316 9.43206 20.5676 9.43206C23.1916 9.43206 25.2716 9.81606 26.8076 10.5841C28.3436 11.2881 29.4316 12.3441 30.0716 13.7521C30.7116 15.1601 31.0316 16.9841 31.0316 19.2241L31.1276 42.6481C31.1276 48.7921 31.6076 53.2401 32.5676 55.9921C33.5276 58.7441 35.4156 60.1201 38.2316 60.1201C39.6396 60.1201 40.6956 59.5441 41.3996 58.3921C42.1036 57.1761 42.5836 55.2561 42.8396 52.6321C42.0076 48.9201 41.5916 43.1281 41.5916 35.2561C41.5916 30.8401 41.6876 27.3201 41.8796 24.6961C42.0716 22.0721 42.3596 19.8001 42.7436 17.8801C43.1276 15.9601 43.7676 14.5841 44.6636 13.7521C45.5596 12.9201 46.5516 12.3441 47.6396 12.0241C48.7916 11.6401 50.3596 11.4481 52.3436 11.4481C53.4956 11.4481 54.4876 11.4801 55.3196 11.5441C56.2156 11.6081 57.0476 11.8001 57.8156 12.1201C58.5836 12.4401 59.2236 12.7281 59.7356 12.9841C60.2476 13.2401 60.7276 13.7201 61.1756 14.4241C61.6236 15.1281 61.9756 15.7361 62.2316 16.2481C62.4876 16.7601 62.7116 17.5921 62.9036 18.7441C63.1596 19.8961 63.3196 20.9201 63.3836 21.8161C63.5116 22.6481 63.5756 23.9281 63.5756 25.6561C63.6396 27.3201 63.6716 28.7921 63.6716 30.0721C63.7356 31.2881 63.7676 33.0481 63.7676 35.3521C63.7676 43.4161 63.3516 49.3681 62.5196 53.2081C62.7756 55.5121 63.2556 57.2081 63.9596 58.2961C64.6636 59.3841 65.7516 59.9281 67.2236 59.9281Z" stroke="#EF598F" stroke-width="16" mask="url(#path-1-outside-1_42_3)"/>
<path d="M138.507 36.0241C141.899 36.0241 144.267 36.5681 145.611 37.6561C147.019 38.7441 147.723 40.6001 147.723 43.2241C147.723 45.4001 146.891 46.9681 145.227 47.9281C143.627 48.8241 141.099 49.2721 137.643 49.2721H122.091V59.4481L142.923 59.5441C146.507 59.5441 149.067 60.0881 150.603 61.1761C152.203 62.2001 153.003 64.0561 153.003 66.7441C153.003 69.8161 152.075 71.9601 150.219 73.1761C148.427 74.3921 145.675 75.0001 141.963 75.0001H110.859C107.083 75.0001 104.299 74.0081 102.507 72.0241C100.779 69.9761 99.9146 66.3921 99.9146 61.2721V20.7601C99.9146 13.0801 103.563 9.24006 110.859 9.24006H141.963C145.675 9.24006 148.427 9.81606 150.219 10.9681C152.075 12.1201 153.003 14.2001 153.003 17.2081C153.003 20.0241 152.203 22.0081 150.603 23.1601C149.067 24.2481 146.507 24.7921 142.923 24.7921H121.995V36.0241H138.507Z" stroke="#EF598F" stroke-width="16" mask="url(#path-1-outside-1_42_3)"/>
<path d="M168.063 75.0001C165.119 74.9361 162.751 74.4881 160.959 73.6561C159.167 72.7601 157.823 71.3201 156.927 69.3361C156.031 67.3521 155.583 64.6961 155.583 61.3681V20.7601C155.583 17.3681 156.575 14.6161 158.559 12.5041C160.543 10.3281 163.167 9.24006 166.431 9.24006C170.271 9.24006 173.087 9.94406 174.879 11.3521C176.735 12.7601 177.663 15.6081 177.663 19.8961V58.3921H194.079C197.791 58.3921 200.383 58.9361 201.855 60.0241C203.391 61.1121 204.159 63.3521 204.159 66.7441C204.159 70.2001 203.295 72.4401 201.567 73.4641C199.839 74.4881 197.023 75.0001 193.119 75.0001H168.063Z" stroke="#EF598F" stroke-width="16" mask="url(#path-1-outside-1_42_3)"/>
<path d="M238.535 27.2881C238.535 25.9441 237.959 24.7921 236.807 23.8321C235.719 22.8721 234.407 22.3921 232.871 22.3921C229.799 22.3921 227.271 24.1521 225.287 27.6721C223.303 31.1281 222.311 35.0641 222.311 39.4801C222.311 42.8721 222.951 45.9441 224.231 48.6961C225.511 51.3841 227.367 53.5281 229.799 55.1281C232.231 56.7281 235.047 57.5281 238.247 57.5281C240.615 57.5281 242.887 57.0801 245.063 56.1841C247.239 55.2241 248.999 54.2001 250.343 53.1121C251.687 51.9601 253.063 50.9361 254.471 50.0401C255.943 49.0801 257.223 48.6001 258.311 48.6001C259.719 48.6001 260.935 49.1761 261.959 50.3281C262.983 51.4161 263.495 52.5681 263.495 53.7841C263.495 55.1281 263.079 56.6961 262.247 58.4881C261.479 60.2801 260.231 62.2001 258.503 64.2481C256.775 66.2321 254.759 68.0881 252.455 69.8161C250.151 71.4801 247.271 72.8881 243.815 74.0401C240.423 75.1281 236.839 75.6721 233.063 75.6721C228.071 75.6721 223.431 74.9361 219.143 73.4641C214.919 71.9281 211.239 69.7841 208.103 67.0321C204.967 64.2161 202.503 60.6961 200.711 56.4721C198.919 52.2481 198.023 47.5121 198.023 42.2641C198.023 31.8961 201.127 23.7041 207.335 17.6881C213.543 11.6721 221.671 8.66406 231.719 8.66406C236.839 8.66406 241.575 9.52806 245.927 11.2561C250.279 12.9841 253.735 15.3841 256.295 18.4561C258.855 21.5281 260.135 24.8881 260.135 28.5361C260.135 32.7601 258.727 36.6001 255.911 40.0561C253.095 43.4481 249.447 45.1441 244.967 45.1441C242.407 45.1441 240.103 44.4401 238.055 43.0321C236.007 41.6241 234.983 39.6081 234.983 36.9841C234.983 35.7681 235.559 34.0721 236.711 31.8961C237.927 29.7201 238.535 28.1841 238.535 27.2881Z" stroke="#EF598F" stroke-width="16" mask="url(#path-1-outside-1_42_3)"/>
<path d="M298.746 61.5601C300.922 61.5601 302.778 60.6001 304.314 58.6801C305.914 56.7601 307.034 54.3921 307.674 51.5761C308.378 48.7601 308.73 45.7521 308.73 42.5521C308.73 39.2881 308.378 36.2161 307.674 33.3361C306.97 30.3921 305.818 27.8961 304.218 25.8481C302.682 23.8001 300.858 22.7761 298.746 22.7761C296.698 22.7761 294.906 23.8001 293.37 25.8481C291.834 27.8961 290.682 30.3921 289.914 33.3361C289.146 36.2801 288.762 39.3521 288.762 42.5521C288.762 45.7521 289.114 48.7601 289.818 51.5761C290.586 54.3921 291.738 56.7601 293.274 58.6801C294.874 60.6001 296.698 61.5601 298.746 61.5601ZM315.738 71.8321C310.682 74.3281 304.986 75.5761 298.65 75.5761C292.378 75.5761 286.714 74.3281 281.658 71.8321C276.666 69.2721 272.666 65.4641 269.658 60.4081C266.65 55.3521 265.146 49.4001 265.146 42.5521C265.146 32.1841 268.25 23.9601 274.458 17.8801C280.73 11.7361 288.826 8.66406 298.746 8.66406C308.666 8.66406 316.762 11.7361 323.034 17.8801C329.306 23.9601 332.442 32.1841 332.442 42.5521C332.442 49.4001 330.906 55.3521 327.834 60.4081C324.826 65.4641 320.794 69.2721 315.738 71.8321Z" stroke="#EF598F" stroke-width="16" mask="url(#path-1-outside-1_42_3)"/>
<path d="M392.316 39.8641L380.316 64.4401C379.292 66.4881 378.204 67.9601 377.052 68.8561C375.9 69.6881 374.524 70.1041 372.924 70.1041C370.876 70.1041 369.148 69.4001 367.74 67.9921C366.332 66.5201 364.508 63.8961 362.268 60.1201L351.132 39.8641V67.0321C351.132 69.7841 350.492 71.8001 349.212 73.0801C347.996 74.3601 346.14 75.0001 343.644 75.0001C340.828 75.0001 338.78 74.3921 337.5 73.1761C336.22 71.8961 335.58 69.4321 335.58 65.7841V23.9281C335.58 19.0001 336.7 15.2881 338.94 12.7921C341.18 10.2961 344.956 9.04806 350.268 9.04806C352.252 9.04806 353.98 9.40006 355.452 10.1041C356.924 10.7441 358.012 11.5121 358.716 12.4081C359.484 13.2401 360.22 14.2961 360.924 15.5761L373.788 43.7041L387.42 16.0561C389.788 11.4481 394.044 9.14406 400.188 9.14406C403.068 9.14406 405.532 9.65606 407.58 10.6801C409.628 11.6401 411.228 13.2401 412.38 15.4801C413.596 17.6561 414.204 20.4081 414.204 23.7361V65.4961C414.14 71.8321 410.14 75.0001 402.204 75.0001C399.324 75.0001 396.956 74.2321 395.1 72.6961C393.308 71.0961 392.38 68.5361 392.316 65.0161V39.8641Z" stroke="#EF598F" stroke-width="16" mask="url(#path-1-outside-1_42_3)"/>
<path d="M457.425 36.0241C460.817 36.0241 463.185 36.5681 464.529 37.6561C465.937 38.7441 466.641 40.6001 466.641 43.2241C466.641 45.4001 465.809 46.9681 464.145 47.9281C462.545 48.8241 460.017 49.2721 456.561 49.2721H441.009V59.4481L461.841 59.5441C465.425 59.5441 467.985 60.0881 469.521 61.1761C471.121 62.2001 471.921 64.0561 471.921 66.7441C471.921 69.8161 470.993 71.9601 469.137 73.1761C467.345 74.3921 464.593 75.0001 460.881 75.0001H429.777C426.001 75.0001 423.217 74.0081 421.425 72.0241C419.697 69.9761 418.833 66.3921 418.833 61.2721V20.7601C418.833 13.0801 422.481 9.24006 429.777 9.24006H460.881C464.593 9.24006 467.345 9.81606 469.137 10.9681C470.993 12.1201 471.921 14.2001 471.921 17.2081C471.921 20.0241 471.121 22.0081 469.521 23.1601C467.985 24.2481 465.425 24.7921 461.841 24.7921H440.913V36.0241H457.425Z" stroke="#EF598F" stroke-width="16" mask="url(#path-1-outside-1_42_3)"/>
<path d="M228.921 158.6C228.921 162.248 228.473 165.16 227.577 167.336C226.681 169.448 225.433 170.92 223.833 171.752C222.297 172.584 220.249 173 217.689 173C213.913 173 211.161 172.008 209.433 170.024C207.769 167.976 206.905 164.392 206.841 159.272L206.649 123.848H198.489C194.457 123.848 191.417 123.208 189.369 121.928C187.385 120.648 186.393 118.376 186.393 115.112C186.393 113.128 186.777 111.56 187.545 110.408C188.377 109.256 189.593 108.456 191.193 108.008C192.793 107.496 194.937 107.24 197.625 107.24H238.713C242.297 107.24 244.889 107.88 246.489 109.16C248.089 110.44 248.889 112.648 248.889 115.784C248.889 117.896 248.409 119.56 247.449 120.776C246.553 121.928 245.337 122.728 243.801 123.176C242.265 123.624 240.281 123.848 237.849 123.848H228.921V158.6Z" stroke="#EF598F" stroke-width="16" mask="url(#path-1-outside-1_42_3)"/>
<path d="M277.653 159.56C279.829 159.56 281.685 158.6 283.221 156.68C284.821 154.76 285.941 152.392 286.581 149.576C287.285 146.76 287.637 143.752 287.637 140.552C287.637 137.288 287.285 134.216 286.581 131.336C285.877 128.392 284.725 125.896 283.125 123.848C281.589 121.8 279.765 120.776 277.653 120.776C275.605 120.776 273.813 121.8 272.277 123.848C270.741 125.896 269.589 128.392 268.821 131.336C268.053 134.28 267.669 137.352 267.669 140.552C267.669 143.752 268.021 146.76 268.725 149.576C269.493 152.392 270.645 154.76 272.181 156.68C273.781 158.6 275.605 159.56 277.653 159.56ZM294.645 169.832C289.589 172.328 283.893 173.576 277.557 173.576C271.285 173.576 265.621 172.328 260.565 169.832C255.573 167.272 251.573 163.464 248.565 158.408C245.557 153.352 244.053 147.4 244.053 140.552C244.053 130.184 247.157 121.96 253.365 115.88C259.637 109.736 267.733 106.664 277.653 106.664C287.573 106.664 295.669 109.736 301.941 115.88C308.213 121.96 311.349 130.184 311.349 140.552C311.349 147.4 309.813 153.352 306.741 158.408C303.733 163.464 299.701 167.272 294.645 169.832Z" stroke="#EF598F" stroke-width="16" mask="url(#path-1-outside-1_42_3)"/>
<path d="M81.5464 204.568C89.1624 204.568 95.6584 206.136 101.034 209.272C106.41 212.408 109.098 215.736 109.098 219.256C109.098 220.216 108.874 221.048 108.426 221.752C108.042 222.392 107.53 222.872 106.89 223.192C106.314 223.448 105.674 223.576 104.97 223.576C103.818 223.576 102.09 223 99.7864 221.848C97.4824 220.632 94.9224 219.448 92.1064 218.296C89.2904 217.08 86.6984 216.472 84.3304 216.472C80.5544 216.472 78.6664 218.008 78.6664 221.08C78.6664 222.04 78.9544 222.968 79.5304 223.864C80.1704 224.696 81.1624 225.592 82.5064 226.552C83.8504 227.448 85.1624 228.248 86.4424 228.952C87.7224 229.656 89.4824 230.616 91.7224 231.832C93.9624 232.984 95.8504 234.008 97.3864 234.904C102.314 237.72 105.77 240.408 107.754 242.968C109.738 245.528 110.73 248.472 110.73 251.8C110.73 265.048 101.802 271.672 83.9464 271.672C80.4264 271.672 77.0024 271.32 73.6744 270.616C70.4104 269.912 67.5304 268.984 65.0344 267.832C62.6024 266.68 60.4264 265.4 58.5064 263.992C56.6504 262.584 55.2424 261.144 54.2824 259.672C53.3224 258.2 52.8424 256.824 52.8424 255.544C52.8424 254.136 53.2904 252.952 54.1864 251.992C55.1464 250.968 56.5224 250.456 58.3144 250.456C59.6584 250.456 62.8904 251.32 68.0104 253.048C73.1304 254.712 77.2584 255.544 80.3944 255.544C83.2744 255.544 84.7144 254.552 84.7144 252.568C84.7144 251.992 84.5864 251.48 84.3304 251.032C84.1384 250.52 83.7544 250.04 83.1784 249.592C82.6664 249.08 82.0584 248.632 81.3544 248.248C80.7144 247.8 79.7864 247.256 78.5704 246.616C77.4184 245.976 76.2344 245.336 75.0184 244.696C73.8664 244.056 72.3304 243.224 70.4104 242.2C68.4904 241.176 66.6344 240.152 64.8424 239.128C62.4744 237.784 60.4264 236.12 58.6984 234.136C57.0344 232.152 55.8184 230.2 55.0504 228.28C54.2824 226.296 53.8984 224.472 53.8984 222.808C53.8984 217.432 56.2984 213.048 61.0984 209.656C65.8984 206.264 72.7144 204.568 81.5464 204.568Z" stroke="#EF598F" stroke-width="16" mask="url(#path-1-outside-1_42_3)"/>
<path d="M176.619 256.6C176.619 261.784 175.691 265.496 173.835 267.736C171.979 269.912 169.163 271 165.387 271C161.675 271 158.955 270.008 157.227 268.024C155.499 265.976 154.635 262.392 154.635 257.272L154.539 246.424H134.955V256.6C134.955 261.848 134.059 265.56 132.267 267.736C130.475 269.912 127.627 271 123.723 271C120.011 271 117.291 270.008 115.563 268.024C113.835 265.976 112.971 262.392 112.971 257.272L112.683 216.76C112.683 212.792 113.675 209.88 115.659 208.024C117.707 206.168 120.395 205.24 123.723 205.24C127.563 205.24 130.379 205.944 132.171 207.352C134.027 208.76 134.955 211.608 134.955 215.896V232.024H154.443V216.76C154.443 214.072 154.923 211.864 155.883 210.136C156.907 208.344 158.187 207.096 159.723 206.392C161.323 205.624 163.211 205.24 165.387 205.24C169.099 205.24 171.883 205.944 173.739 207.352C175.659 208.76 176.619 211.608 176.619 215.896V256.6Z" stroke="#EF598F" stroke-width="16" mask="url(#path-1-outside-1_42_3)"/>
<path d="M202.757 256.6C202.757 261.592 201.829 265.24 199.973 267.544C198.117 269.848 195.301 271 191.525 271C187.813 271 185.061 270.008 183.269 268.024C181.541 266.04 180.677 262.488 180.677 257.368V216.76C180.677 209.08 184.293 205.24 191.525 205.24C195.237 205.24 198.021 205.944 199.877 207.352C201.797 208.76 202.757 211.608 202.757 215.896V256.6Z" stroke="#EF598F" stroke-width="16" mask="url(#path-1-outside-1_42_3)"/>
<path d="M243.486 223.768C243.486 221.08 242.43 219.256 240.318 218.296C238.27 217.272 234.814 216.76 229.95 216.76V231.448C232.958 231.448 235.39 231.224 237.246 230.776C239.166 230.328 240.67 229.56 241.758 228.472C242.91 227.32 243.486 225.752 243.486 223.768ZM244.734 249.4C244.734 247.288 244.19 245.656 243.102 244.504C242.014 243.352 240.446 242.552 238.398 242.104C236.35 241.592 233.534 241.336 229.95 241.336V257.944C234.942 257.944 238.654 257.336 241.086 256.12C243.518 254.84 244.734 252.6 244.734 249.4ZM256.542 236.824C262.494 240.344 265.47 245.048 265.47 250.936C265.47 253.496 264.958 255.96 263.934 258.328C262.974 260.632 261.502 262.744 259.518 264.664C257.598 266.584 255.038 268.12 251.838 269.272C248.638 270.36 245.022 270.904 240.99 270.904H218.718C214.814 270.904 211.998 269.912 210.27 267.928C208.606 265.944 207.774 262.392 207.774 257.272V216.664C207.774 214.488 208.158 212.568 208.926 210.904C209.694 209.24 210.91 207.896 212.574 206.872C214.302 205.848 216.35 205.336 218.718 205.336H240.702C247.102 205.4 252.414 207.16 256.638 210.616C260.926 214.008 263.07 218.392 263.07 223.768C263.07 225.496 262.91 227.032 262.59 228.376C262.334 229.656 261.918 230.808 261.342 231.832C260.766 232.856 260.094 233.752 259.326 234.52C258.558 235.288 257.63 236.056 256.542 236.824Z" stroke="#EF598F" stroke-width="16" mask="url(#path-1-outside-1_42_3)"/>
<path d="M327.716 216.76V245.368C327.716 254.712 325.444 261.432 320.9 265.528C316.42 269.56 308.836 271.576 298.148 271.576C287.972 271.576 280.484 269.4 275.684 265.048C270.948 260.696 268.58 254.136 268.58 245.368V216.76C268.58 213.368 269.572 210.616 271.556 208.504C273.604 206.328 276.164 205.24 279.236 205.24C283.012 205.24 285.86 205.944 287.78 207.352C289.764 208.76 290.756 211.608 290.756 215.896V247.192C290.82 249.24 291.14 250.872 291.716 252.088C292.356 253.304 293.188 254.168 294.212 254.68C295.236 255.128 296.548 255.352 298.148 255.352C299.748 255.352 301.06 255.16 302.084 254.776C303.108 254.392 303.844 253.784 304.292 252.952C304.804 252.12 305.124 251.288 305.252 250.456C305.444 249.624 305.54 248.536 305.54 247.192V215.8C305.54 213.624 305.796 211.8 306.308 210.328C306.884 208.856 307.716 207.768 308.804 207.064C309.956 206.36 311.108 205.88 312.26 205.624C313.476 205.368 314.916 205.24 316.58 205.24C320.292 205.24 323.076 206.136 324.932 207.928C326.788 209.72 327.716 212.664 327.716 216.76Z" stroke="#EF598F" stroke-width="16" mask="url(#path-1-outside-1_42_3)"/>
<path d="M370.753 256.6C370.753 261.784 369.825 265.496 367.969 267.736C366.113 269.912 363.265 271 359.425 271C355.713 271 352.993 270.008 351.265 268.024C349.537 265.976 348.641 262.392 348.577 257.272L348.481 241.72L333.697 224.44C331.009 221.368 329.665 218.712 329.665 216.472C329.665 212.952 331.009 210.168 333.697 208.12C336.257 206.2 338.529 205.24 340.513 205.24C343.265 205.24 345.729 206.488 347.905 208.984L359.617 222.616L369.409 211.192C372.673 207.288 376.161 205.336 379.873 205.336C382.625 205.336 384.769 206.104 386.305 207.64C388.929 210.264 390.241 212.792 390.241 215.224C390.241 216.568 389.793 218.008 388.897 219.544C388.001 221.016 386.561 222.936 384.577 225.304L370.753 242.2V256.6Z" stroke="#EF598F" stroke-width="16" mask="url(#path-1-outside-1_42_3)"/>
<path d="M415.31 220.888C412.558 220.888 410.51 221.688 409.166 223.288C407.886 224.888 407.246 227.736 407.246 231.832V243.16H423.182V231.64C423.182 228.952 422.862 226.808 422.222 225.208C421.582 223.544 420.686 222.424 419.534 221.848C418.446 221.208 417.038 220.888 415.31 220.888ZM423.182 256.408H407.246V261.496C407.246 264.76 406.382 267.16 404.654 268.696C402.926 270.232 399.95 271 395.726 271C393.934 271 392.462 270.744 391.31 270.232C390.158 269.72 389.134 268.856 388.238 267.64C387.406 266.424 386.766 264.664 386.318 262.36C385.934 259.992 385.614 257.176 385.358 253.912C385.166 250.584 385.07 246.392 385.07 241.336C385.07 236.92 385.518 232.888 386.414 229.24C387.374 225.528 388.622 222.392 390.158 219.832C391.758 217.272 393.55 215.032 395.534 213.112C397.518 211.128 399.662 209.592 401.966 208.504C404.334 207.416 406.606 206.616 408.782 206.104C411.022 205.528 413.262 205.24 415.502 205.24C418.19 205.24 420.846 205.624 423.47 206.392C426.094 207.096 428.75 208.344 431.438 210.136C434.126 211.928 436.462 214.168 438.446 216.856C440.494 219.48 442.158 222.904 443.438 227.128C444.718 231.352 445.358 236.088 445.358 241.336C445.358 249.784 445.038 256.056 444.398 260.152C443.822 264.184 442.798 267 441.326 268.6C439.918 270.2 437.71 271 434.702 271C430.478 271 427.502 270.232 425.774 268.696C424.046 267.16 423.182 264.76 423.182 261.496V256.408Z" stroke="#EF598F" stroke-width="16" mask="url(#path-1-outside-1_42_3)"/>
</svg>
