<svg width="781" height="451" viewBox="0 0 781 451" fill="none" xmlns="http://www.w3.org/2000/svg">
<mask id="path-1-outside-1_42_3" maskUnits="userSpaceOnUse" x="0" y="0" width="781" height="451" fill="black">
<rect fill="white" width="781" height="451"/>
<path d="M104.841 92.7877C108.962 92.7877 111.815 90.5648 113.4 86.119C114.985 81.5673 115.778 74.2106 115.778 64.0488L116.095 25.1481C116.095 19.5379 117.363 15.4626 119.899 12.9221C122.54 10.2758 127.031 8.95267 133.371 8.95267C137.28 8.95267 140.398 9.58778 142.722 10.858C145.152 12.1282 147.213 14.6158 148.903 18.3206C150.594 22.0254 151.756 27.0534 152.39 33.4046C153.024 39.7557 153.341 48.171 153.341 58.6503C153.341 64.8956 152.813 70.7175 151.756 76.116C150.7 81.5144 149.273 86.2249 147.477 90.2472C145.681 94.2696 143.515 97.9215 140.979 101.203C138.548 104.379 135.96 107.025 133.212 109.142C130.465 111.259 127.559 113.058 124.495 114.54C121.431 115.916 118.419 116.922 115.461 117.557C112.608 118.086 109.808 118.351 107.06 118.351C97.5506 118.351 88.9389 115.334 81.2254 109.301C73.6176 115.546 65.0059 118.669 55.3905 118.669C51.2696 118.669 47.1487 118.086 43.0277 116.922C38.9068 115.652 34.6803 113.535 30.348 110.571C26.1214 107.607 22.3704 103.955 19.0948 99.6152C15.8192 95.1694 13.1247 89.4533 11.0114 82.4671C9.00381 75.375 8 67.5419 8 58.9679C8 45.1012 8.63399 34.6219 9.90196 27.5298C11.2756 20.4376 13.2832 15.6214 15.9248 13.0809C18.6721 10.5405 22.6345 9.27023 27.8121 9.27023C32.1443 9.27023 35.5784 9.90535 38.1144 11.1756C40.6503 12.3399 42.4466 14.0865 43.5032 16.4153C44.5599 18.744 45.0882 21.7608 45.0882 25.4656L45.2467 64.2076C45.2467 74.3694 46.0392 81.7261 47.6242 86.2778C49.2091 90.8294 52.3262 93.1053 56.9755 93.1053C59.3001 93.1053 61.0435 92.1526 62.2058 90.2472C63.3682 88.236 64.1606 85.0605 64.5833 80.7205C63.2097 74.5811 62.5228 65.0015 62.5228 51.9816C62.5228 44.6778 62.6813 38.8559 62.9983 34.516C63.3153 30.1761 63.7908 26.4183 64.4248 23.2427C65.0588 20.0672 66.1154 17.7913 67.5947 16.4153C69.074 15.0392 70.7118 14.0865 72.5081 13.5572C74.4101 12.9221 76.9989 12.6046 80.2745 12.6046C82.1764 12.6046 83.8142 12.6575 85.1879 12.7634C86.6672 12.8692 88.0408 13.1868 89.3088 13.716C90.5767 14.2453 91.6334 14.7216 92.4787 15.145C93.324 15.5684 94.1165 16.3623 94.8561 17.5267C95.5958 18.6911 96.177 19.6967 96.5996 20.5435C97.0223 21.3903 97.3921 22.7664 97.7091 24.6717C98.1317 26.5771 98.3959 28.2707 98.5016 29.7527C98.7129 31.1287 98.8186 33.2458 98.8186 36.1038C98.9242 38.8559 98.9771 41.2905 98.9771 43.4076C99.0827 45.4188 99.1356 48.3297 99.1356 52.1404C99.1356 65.4778 98.4487 75.3221 97.0751 81.6732C97.4978 85.4839 98.2902 88.289 99.4525 90.0885C100.615 91.888 102.411 92.7877 104.841 92.7877Z"/>
<path d="M222.53 53.2519C228.13 53.2519 232.04 54.1516 234.259 55.9511C236.583 57.7506 237.746 60.8203 237.746 65.1602C237.746 68.7592 236.372 71.3526 233.625 72.9404C230.983 74.4223 226.81 75.1633 221.104 75.1633H195.427V91.9938L229.821 92.1526C235.738 92.1526 239.965 93.0523 242.501 94.8518C245.142 96.5455 246.463 99.6152 246.463 104.061C246.463 109.142 244.931 112.688 241.867 114.699C238.908 116.71 234.365 117.716 228.236 117.716H176.883C170.649 117.716 166.052 116.075 163.094 112.794C160.241 109.407 158.814 103.479 158.814 95.0106V28.0061C158.814 15.3038 164.837 8.95267 176.883 8.95267H228.236C234.365 8.95267 238.908 9.90534 241.867 11.8107C244.931 13.716 246.463 17.1562 246.463 22.1313C246.463 26.7888 245.142 30.0702 242.501 31.9755C239.965 33.775 235.738 34.6748 229.821 34.6748H195.269V53.2519H222.53Z"/>
<path d="M271.327 117.716C266.467 117.61 262.557 116.869 259.598 115.493C256.64 114.011 254.421 111.629 252.942 108.348C251.462 105.067 250.723 100.674 250.723 95.1694V28.0061C250.723 22.3959 252.36 17.8443 255.636 14.3511C258.912 10.7522 263.244 8.95267 268.633 8.95267C274.973 8.95267 279.622 10.117 282.58 12.4458C285.645 14.7745 287.177 19.485 287.177 26.5771V90.2472H314.28C320.408 90.2472 324.688 91.147 327.118 92.9465C329.654 94.746 330.922 98.4508 330.922 104.061C330.922 109.777 329.496 113.482 326.643 115.175C323.79 116.869 319.14 117.716 312.695 117.716H271.327Z"/>
<path d="M387.677 38.803C387.677 36.5801 386.726 34.6748 384.824 33.087C383.028 31.4992 380.862 30.7053 378.326 30.7053C373.254 30.7053 369.08 33.6163 365.805 39.4381C362.529 45.1542 360.891 51.6641 360.891 58.9679C360.891 64.5781 361.948 69.659 364.061 74.2106C366.175 78.6564 369.239 82.2025 373.254 84.8488C377.269 87.4951 381.919 88.8182 387.202 88.8182C391.111 88.8182 394.863 88.0773 398.455 86.5953C402.048 85.0076 404.954 83.3139 407.172 81.5144C409.391 79.6091 411.663 77.9154 413.988 76.4335C416.418 74.8457 418.531 74.0518 420.328 74.0518C422.652 74.0518 424.66 75.0045 426.351 76.9099C428.041 78.7093 428.887 80.6147 428.887 82.6259C428.887 84.8488 428.2 87.4422 426.826 90.406C425.558 93.3699 423.498 96.5454 420.645 99.9327C417.792 103.214 414.463 106.284 410.659 109.142C406.855 111.894 402.101 114.223 396.395 116.128C390.794 117.928 384.877 118.827 378.643 118.827C370.401 118.827 362.741 117.61 355.661 115.175C348.687 112.635 342.612 109.089 337.434 104.537C332.256 99.8798 328.188 94.0579 325.23 87.0717C322.271 80.0854 320.792 72.2523 320.792 63.5725C320.792 46.4244 325.917 32.8753 336.166 22.9252C346.415 12.9751 359.835 8 376.424 8C384.877 8 392.696 9.42901 399.882 12.287C407.067 15.145 412.773 19.1145 416.999 24.1954C421.226 29.2763 423.339 34.8336 423.339 40.8671C423.339 47.8534 421.015 54.2045 416.365 59.9206C411.716 65.5307 405.693 68.3358 398.297 68.3358C394.07 68.3358 390.266 67.1714 386.885 64.8427C383.504 62.5139 381.813 59.1796 381.813 54.8396C381.813 52.8285 382.764 50.0234 384.666 46.4244C386.674 42.8254 387.677 40.285 387.677 38.803Z"/>
<path d="M487.087 95.4869C490.68 95.4869 493.744 93.8991 496.28 90.7236C498.921 87.548 500.77 83.6315 501.827 78.974C502.989 74.3165 503.571 69.3414 503.571 64.0488C503.571 58.6503 502.989 53.5694 501.827 48.8061C500.665 43.9369 498.763 39.8086 496.121 36.4213C493.585 33.0341 490.574 31.3404 487.087 31.3404C483.706 31.3404 480.747 33.0341 478.211 36.4213C475.675 39.8086 473.773 43.9369 472.505 48.8061C471.237 53.6753 470.603 58.7562 470.603 64.0488C470.603 69.3414 471.184 74.3165 472.347 78.974C473.615 83.6315 475.517 87.548 478.053 90.7236C480.694 93.8991 483.706 95.4869 487.087 95.4869ZM515.141 112.476C506.793 116.604 497.389 118.669 486.928 118.669C476.573 118.669 467.222 116.604 458.875 112.476C450.633 108.242 444.029 101.944 439.062 93.5816C434.096 85.2193 431.613 75.375 431.613 64.0488C431.613 46.9007 436.738 33.2987 446.987 23.2427C457.342 13.0809 470.709 8 487.087 8C503.465 8 516.831 13.0809 527.187 23.2427C537.542 33.2987 542.719 46.9007 542.719 64.0488C542.719 75.375 540.183 85.2193 535.111 93.5816C530.145 101.944 523.488 108.242 515.141 112.476Z"/>
<path d="M641.572 59.603L621.76 100.25C620.069 103.638 618.273 106.072 616.371 107.554C614.469 108.93 612.197 109.618 609.555 109.618C606.174 109.618 603.321 108.454 600.997 106.125C598.672 103.69 595.66 99.3505 591.962 93.1053L573.577 59.603V104.537C573.577 109.089 572.52 112.423 570.407 114.54C568.399 116.657 565.335 117.716 561.214 117.716C556.565 117.716 553.183 116.71 551.07 114.699C548.957 112.582 547.9 108.507 547.9 102.473V33.2458C547.9 25.0951 549.749 18.9557 553.448 14.8275C557.146 10.6992 563.38 8.63512 572.15 8.63512C575.426 8.63512 578.279 9.2173 580.709 10.3817C583.139 11.4402 584.936 12.7104 586.098 14.1924C587.366 15.5684 588.581 17.315 589.743 19.4321L610.982 65.9541L633.488 20.2259C637.398 12.6046 644.425 8.79389 654.568 8.79389C659.323 8.79389 663.391 9.64071 666.773 11.3344C670.154 12.9221 672.795 15.5684 674.697 19.2733C676.705 22.8723 677.709 27.4239 677.709 32.9282V101.997C677.603 112.476 670.999 117.716 657.897 117.716C653.142 117.716 649.232 116.446 646.168 113.905C643.209 111.259 641.677 107.025 641.572 101.203V59.603Z"/>
<path d="M749.067 53.2519C754.667 53.2519 758.577 54.1516 760.796 55.9511C763.12 57.7506 764.283 60.8203 764.283 65.1602C764.283 68.7592 762.909 71.3526 760.162 72.9404C757.52 74.4223 753.346 75.1633 747.641 75.1633H721.964V91.9938L756.358 92.1526C762.275 92.1526 766.502 93.0523 769.038 94.8518C771.679 96.5455 773 99.6152 773 104.061C773 109.142 771.468 112.688 768.404 114.699C765.445 116.71 760.901 117.716 754.773 117.716H703.42C697.186 117.716 692.589 116.075 689.631 112.794C686.778 109.407 685.351 103.479 685.351 95.0106V28.0061C685.351 15.3038 691.374 8.95267 703.42 8.95267H754.773C760.901 8.95267 765.445 9.90534 768.404 11.8107C771.468 13.716 773 17.1562 773 22.1313C773 26.7888 771.679 30.0702 769.038 31.9755C766.502 33.775 762.275 34.6748 756.358 34.6748H721.806V53.2519H749.067Z"/>
<path d="M371.805 255.985C371.805 262.019 371.066 266.835 369.586 270.434C368.107 273.927 366.047 276.362 363.405 277.738C360.869 279.114 357.488 279.802 353.261 279.802C347.027 279.802 342.484 278.162 339.631 274.88C336.883 271.493 335.457 265.565 335.351 257.097L335.034 198.508H321.562C314.905 198.508 309.886 197.449 306.505 195.332C303.229 193.215 301.591 189.457 301.591 184.059C301.591 180.777 302.225 178.184 303.493 176.279C304.867 174.373 306.875 173.05 309.516 172.309C312.158 171.462 315.698 171.039 320.136 171.039H387.972C393.889 171.039 398.169 172.098 400.81 174.215C403.452 176.332 404.773 179.984 404.773 185.17C404.773 188.663 403.98 191.416 402.395 193.427C400.916 195.332 398.908 196.655 396.372 197.396C393.836 198.137 390.561 198.508 386.546 198.508H371.805V255.985Z"/>
<path d="M452.261 257.573C455.854 257.573 458.918 255.985 461.454 252.81C464.095 249.634 465.945 245.718 467.001 241.06C468.164 236.403 468.745 231.428 468.745 226.135C468.745 220.737 468.164 215.656 467.001 210.892C465.839 206.023 463.937 201.895 461.295 198.508C458.759 195.12 455.748 193.427 452.261 193.427C448.88 193.427 445.921 195.12 443.385 198.508C440.849 201.895 438.947 206.023 437.679 210.892C436.411 215.762 435.777 220.843 435.777 226.135C435.777 231.428 436.359 236.403 437.521 241.06C438.789 245.718 440.691 249.634 443.227 252.81C445.868 255.985 448.88 257.573 452.261 257.573ZM480.315 274.563C471.967 278.691 462.563 280.755 452.103 280.755C441.747 280.755 432.396 278.691 424.049 274.563C415.807 270.328 409.203 264.03 404.237 255.668C399.27 247.306 396.787 237.461 396.787 226.135C396.787 208.987 401.912 195.385 412.161 185.329C422.517 175.167 435.883 170.086 452.261 170.086C468.639 170.086 482.006 175.167 492.361 185.329C502.716 195.385 507.893 208.987 507.893 226.135C507.893 237.461 505.357 247.306 500.286 255.668C495.319 264.03 488.662 270.328 480.315 274.563Z"/>
<path d="M128.488 332.014C141.062 332.014 151.787 334.607 160.663 339.794C169.539 344.981 173.977 350.485 173.977 356.307C173.977 357.895 173.607 359.271 172.867 360.435C172.233 361.494 171.388 362.288 170.331 362.817C169.38 363.24 168.324 363.452 167.162 363.452C165.26 363.452 162.407 362.499 158.603 360.594C154.799 358.583 150.572 356.625 145.923 354.719C141.274 352.708 136.994 351.702 133.085 351.702C126.851 351.702 123.733 354.243 123.733 359.324C123.733 360.912 124.209 362.446 125.16 363.928C126.217 365.304 127.854 366.786 130.073 368.374C132.292 369.856 134.458 371.179 136.572 372.344C138.685 373.508 141.591 375.096 145.289 377.107C148.987 379.012 152.104 380.706 154.64 382.188C162.776 386.845 168.482 391.291 171.758 395.525C175.034 399.759 176.671 404.629 176.671 410.133C176.671 432.044 161.931 443 132.451 443C126.639 443 120.986 442.418 115.492 441.253C110.103 440.089 105.348 438.554 101.227 436.649C97.2117 434.744 93.6191 432.626 90.4492 430.298C87.3849 427.969 85.0603 425.587 83.4753 423.153C81.8904 420.718 81.0979 418.442 81.0979 416.325C81.0979 413.996 81.8375 412.038 83.3168 410.45C84.9018 408.757 87.1736 407.91 90.1322 407.91C92.3512 407.91 97.6872 409.339 106.14 412.197C114.594 414.949 121.409 416.325 126.586 416.325C131.341 416.325 133.719 414.685 133.719 411.403C133.719 410.45 133.507 409.604 133.085 408.863C132.768 408.016 132.134 407.222 131.183 406.481C130.338 405.634 129.334 404.893 128.171 404.258C127.115 403.517 125.583 402.617 123.575 401.559C121.673 400.5 119.718 399.442 117.711 398.383C115.809 397.325 113.273 395.949 110.103 394.255C106.933 392.561 103.869 390.868 100.91 389.174C97.0004 386.951 93.6191 384.199 90.7662 380.918C88.0189 377.636 86.0113 374.408 84.7433 371.232C83.4753 367.951 82.8414 364.934 82.8414 362.182C82.8414 353.29 86.8038 346.039 94.7286 340.429C102.653 334.819 113.907 332.014 128.488 332.014Z"/>
<path d="M285.453 418.072C285.453 426.646 283.921 432.785 280.857 436.49C277.793 440.089 273.143 441.889 266.909 441.889C260.781 441.889 256.29 440.248 253.437 436.966C250.584 433.579 249.158 427.651 249.158 419.183L248.999 401.241H216.666V418.072C216.666 426.752 215.186 432.891 212.228 436.49C209.269 440.089 204.567 441.889 198.122 441.889C191.993 441.889 187.502 440.248 184.649 436.966C181.796 433.579 180.37 427.651 180.37 419.183L179.895 352.179C179.895 345.616 181.532 340.8 184.808 337.73C188.189 334.66 192.627 333.125 198.122 333.125C204.461 333.125 209.111 334.29 212.069 336.618C215.134 338.947 216.666 343.658 216.666 350.75V377.425H248.841V352.179C248.841 347.733 249.633 344.081 251.218 341.223C252.909 338.259 255.022 336.195 257.558 335.031C260.199 333.76 263.317 333.125 266.909 333.125C273.038 333.125 277.634 334.29 280.698 336.618C283.868 338.947 285.453 343.658 285.453 350.75V418.072Z"/>
<path d="M328.608 418.072C328.608 426.328 327.076 432.362 324.011 436.173C320.947 439.983 316.298 441.889 310.064 441.889C303.935 441.889 299.391 440.248 296.433 436.966C293.58 433.685 292.153 427.81 292.153 419.342V352.179C292.153 339.476 298.124 333.125 310.064 333.125C316.192 333.125 320.789 334.29 323.853 336.618C327.023 338.947 328.608 343.658 328.608 350.75V418.072Z"/>
<path d="M395.851 363.77C395.851 359.324 394.108 356.307 390.621 354.719C387.239 353.026 381.534 352.179 373.503 352.179V376.472C378.469 376.472 382.485 376.101 385.549 375.36C388.719 374.619 391.202 373.349 392.998 371.55C394.9 369.644 395.851 367.051 395.851 363.77ZM397.912 406.163C397.912 402.67 397.013 399.971 395.217 398.066C393.421 396.16 390.832 394.837 387.451 394.096C384.07 393.249 379.42 392.826 373.503 392.826V420.295C381.745 420.295 387.873 419.289 391.889 417.278C395.904 415.161 397.912 411.456 397.912 406.163ZM417.407 385.363C427.233 391.185 432.147 398.965 432.147 408.704C432.147 412.938 431.302 417.013 429.611 420.93C428.026 424.74 425.596 428.234 422.32 431.409C419.15 434.585 414.924 437.125 409.64 439.031C404.357 440.83 398.387 441.73 391.73 441.73H354.959C348.513 441.73 343.864 440.089 341.011 436.808C338.264 433.526 336.89 427.651 336.89 419.183V352.02C336.89 348.421 337.524 345.245 338.792 342.493C340.06 339.741 342.068 337.518 344.815 335.825C347.668 334.131 351.049 333.284 354.959 333.284H391.255C401.821 333.39 410.591 336.301 417.565 342.017C424.645 347.627 428.184 354.878 428.184 363.77C428.184 366.628 427.92 369.168 427.392 371.391C426.969 373.508 426.282 375.413 425.331 377.107C424.381 378.801 423.271 380.283 422.003 381.553C420.735 382.823 419.203 384.093 417.407 385.363Z"/>
<path d="M534.916 352.179V399.495C534.916 414.949 531.165 426.064 523.663 432.838C516.266 439.507 503.745 442.841 486.099 442.841C469.298 442.841 456.935 439.242 449.011 432.044C441.191 424.846 437.282 413.996 437.282 399.495V352.179C437.282 346.569 438.92 342.017 442.195 338.524C445.577 334.925 449.803 333.125 454.875 333.125C461.109 333.125 465.811 334.29 468.981 336.618C472.257 338.947 473.895 343.658 473.895 350.75V402.512C474 405.899 474.529 408.598 475.48 410.609C476.536 412.62 477.91 414.049 479.6 414.896C481.291 415.637 483.457 416.008 486.099 416.008C488.74 416.008 490.907 415.69 492.597 415.055C494.288 414.42 495.503 413.414 496.243 412.038C497.088 410.662 497.616 409.286 497.828 407.91C498.145 406.534 498.303 404.734 498.303 402.512V350.591C498.303 346.992 498.726 343.975 499.571 341.541C500.522 339.106 501.896 337.307 503.692 336.142C505.594 334.978 507.496 334.184 509.398 333.76C511.405 333.337 513.783 333.125 516.53 333.125C522.659 333.125 527.255 334.607 530.319 337.571C533.384 340.535 534.916 345.404 534.916 352.179Z"/>
<path d="M605.971 418.072C605.971 426.646 604.438 432.785 601.374 436.49C598.31 440.089 593.608 441.889 587.268 441.889C581.139 441.889 576.649 440.248 573.796 436.966C570.943 433.579 569.463 427.651 569.358 419.183L569.199 393.461L544.791 364.881C540.353 359.8 538.134 355.407 538.134 351.702C538.134 345.881 540.353 341.276 544.791 337.889C549.017 334.713 552.769 333.125 556.044 333.125C560.588 333.125 564.656 335.189 568.248 339.318L587.585 361.864L603.752 342.97C609.14 336.513 614.899 333.284 621.028 333.284C625.571 333.284 629.111 334.554 631.647 337.095C635.979 341.435 638.145 345.616 638.145 349.638C638.145 351.861 637.406 354.243 635.926 356.783C634.447 359.218 632.07 362.393 628.794 366.31L605.971 394.255V418.072Z"/>
<path d="M679.534 359.006C674.991 359.006 671.609 360.329 669.39 362.976C667.277 365.622 666.22 370.332 666.22 377.107V395.843H692.531V376.789C692.531 372.344 692.002 368.798 690.946 366.151C689.889 363.399 688.41 361.547 686.508 360.594C684.712 359.535 682.387 359.006 679.534 359.006ZM692.531 417.754H666.22V426.169C666.22 431.568 664.794 435.537 661.941 438.078C659.088 440.618 654.175 441.889 647.201 441.889C644.242 441.889 641.812 441.465 639.91 440.618C638.008 439.771 636.317 438.343 634.838 436.331C633.464 434.32 632.408 431.409 631.668 427.598C631.034 423.682 630.506 419.024 630.083 413.626C629.766 408.122 629.608 401.188 629.608 392.826C629.608 385.522 630.347 378.854 631.827 372.82C633.412 366.681 635.472 361.494 638.008 357.26C640.65 353.026 643.608 349.321 646.884 346.145C650.159 342.864 653.699 340.323 657.503 338.524C661.413 336.724 665.164 335.401 668.756 334.554C672.455 333.602 676.153 333.125 679.851 333.125C684.289 333.125 688.674 333.76 693.006 335.031C697.339 336.195 701.724 338.259 706.161 341.223C710.599 344.187 714.456 347.892 717.732 352.338C721.113 356.677 723.86 362.341 725.974 369.327C728.087 376.313 729.144 384.146 729.144 392.826C729.144 406.799 728.615 417.172 727.559 423.947C726.608 430.615 724.917 435.273 722.487 437.919C720.162 440.565 716.517 441.889 711.55 441.889C704.577 441.889 699.663 440.618 696.81 438.078C693.957 435.537 692.531 431.568 692.531 426.169V417.754Z"/>
</mask>
<path d="M104.841 92.7877C108.962 92.7877 111.815 90.5648 113.4 86.119C114.985 81.5673 115.778 74.2106 115.778 64.0488L116.095 25.1481C116.095 19.5379 117.363 15.4626 119.899 12.9221C122.54 10.2758 127.031 8.95267 133.371 8.95267C137.28 8.95267 140.398 9.58778 142.722 10.858C145.152 12.1282 147.213 14.6158 148.903 18.3206C150.594 22.0254 151.756 27.0534 152.39 33.4046C153.024 39.7557 153.341 48.171 153.341 58.6503C153.341 64.8956 152.813 70.7175 151.756 76.116C150.7 81.5144 149.273 86.2249 147.477 90.2472C145.681 94.2696 143.515 97.9215 140.979 101.203C138.548 104.379 135.96 107.025 133.212 109.142C130.465 111.259 127.559 113.058 124.495 114.54C121.431 115.916 118.419 116.922 115.461 117.557C112.608 118.086 109.808 118.351 107.06 118.351C97.5506 118.351 88.9389 115.334 81.2254 109.301C73.6176 115.546 65.0059 118.669 55.3905 118.669C51.2696 118.669 47.1487 118.086 43.0277 116.922C38.9068 115.652 34.6803 113.535 30.348 110.571C26.1214 107.607 22.3704 103.955 19.0948 99.6152C15.8192 95.1694 13.1247 89.4533 11.0114 82.4671C9.00381 75.375 8 67.5419 8 58.9679C8 45.1012 8.63399 34.6219 9.90196 27.5298C11.2756 20.4376 13.2832 15.6214 15.9248 13.0809C18.6721 10.5405 22.6345 9.27023 27.8121 9.27023C32.1443 9.27023 35.5784 9.90535 38.1144 11.1756C40.6503 12.3399 42.4466 14.0865 43.5032 16.4153C44.5599 18.744 45.0882 21.7608 45.0882 25.4656L45.2467 64.2076C45.2467 74.3694 46.0392 81.7261 47.6242 86.2778C49.2091 90.8294 52.3262 93.1053 56.9755 93.1053C59.3001 93.1053 61.0435 92.1526 62.2058 90.2472C63.3682 88.236 64.1606 85.0605 64.5833 80.7205C63.2097 74.5811 62.5228 65.0015 62.5228 51.9816C62.5228 44.6778 62.6813 38.8559 62.9983 34.516C63.3153 30.1761 63.7908 26.4183 64.4248 23.2427C65.0588 20.0672 66.1154 17.7913 67.5947 16.4153C69.074 15.0392 70.7118 14.0865 72.5081 13.5572C74.4101 12.9221 76.9989 12.6046 80.2745 12.6046C82.1764 12.6046 83.8142 12.6575 85.1879 12.7634C86.6672 12.8692 88.0408 13.1868 89.3088 13.716C90.5767 14.2453 91.6334 14.7216 92.4787 15.145C93.324 15.5684 94.1165 16.3623 94.8561 17.5267C95.5958 18.6911 96.177 19.6967 96.5996 20.5435C97.0223 21.3903 97.3921 22.7664 97.7091 24.6717C98.1317 26.5771 98.3959 28.2707 98.5016 29.7527C98.7129 31.1287 98.8186 33.2458 98.8186 36.1038C98.9242 38.8559 98.9771 41.2905 98.9771 43.4076C99.0827 45.4188 99.1356 48.3297 99.1356 52.1404C99.1356 65.4778 98.4487 75.3221 97.0751 81.6732C97.4978 85.4839 98.2902 88.289 99.4525 90.0885C100.615 91.888 102.411 92.7877 104.841 92.7877Z" fill="white" fill-opacity="0.75"/>
<path d="M222.53 53.2519C228.13 53.2519 232.04 54.1516 234.259 55.9511C236.583 57.7506 237.746 60.8203 237.746 65.1602C237.746 68.7592 236.372 71.3526 233.625 72.9404C230.983 74.4223 226.81 75.1633 221.104 75.1633H195.427V91.9938L229.821 92.1526C235.738 92.1526 239.965 93.0523 242.501 94.8518C245.142 96.5455 246.463 99.6152 246.463 104.061C246.463 109.142 244.931 112.688 241.867 114.699C238.908 116.71 234.365 117.716 228.236 117.716H176.883C170.649 117.716 166.052 116.075 163.094 112.794C160.241 109.407 158.814 103.479 158.814 95.0106V28.0061C158.814 15.3038 164.837 8.95267 176.883 8.95267H228.236C234.365 8.95267 238.908 9.90534 241.867 11.8107C244.931 13.716 246.463 17.1562 246.463 22.1313C246.463 26.7888 245.142 30.0702 242.501 31.9755C239.965 33.775 235.738 34.6748 229.821 34.6748H195.269V53.2519H222.53Z" fill="white" fill-opacity="0.75"/>
<path d="M271.327 117.716C266.467 117.61 262.557 116.869 259.598 115.493C256.64 114.011 254.421 111.629 252.942 108.348C251.462 105.067 250.723 100.674 250.723 95.1694V28.0061C250.723 22.3959 252.36 17.8443 255.636 14.3511C258.912 10.7522 263.244 8.95267 268.633 8.95267C274.973 8.95267 279.622 10.117 282.58 12.4458C285.645 14.7745 287.177 19.485 287.177 26.5771V90.2472H314.28C320.408 90.2472 324.688 91.147 327.118 92.9465C329.654 94.746 330.922 98.4508 330.922 104.061C330.922 109.777 329.496 113.482 326.643 115.175C323.79 116.869 319.14 117.716 312.695 117.716H271.327Z" fill="white" fill-opacity="0.75"/>
<path d="M387.677 38.803C387.677 36.5801 386.726 34.6748 384.824 33.087C383.028 31.4992 380.862 30.7053 378.326 30.7053C373.254 30.7053 369.08 33.6163 365.805 39.4381C362.529 45.1542 360.891 51.6641 360.891 58.9679C360.891 64.5781 361.948 69.659 364.061 74.2106C366.175 78.6564 369.239 82.2025 373.254 84.8488C377.269 87.4951 381.919 88.8182 387.202 88.8182C391.111 88.8182 394.863 88.0773 398.455 86.5953C402.048 85.0076 404.954 83.3139 407.172 81.5144C409.391 79.6091 411.663 77.9154 413.988 76.4335C416.418 74.8457 418.531 74.0518 420.328 74.0518C422.652 74.0518 424.66 75.0045 426.351 76.9099C428.041 78.7093 428.887 80.6147 428.887 82.6259C428.887 84.8488 428.2 87.4422 426.826 90.406C425.558 93.3699 423.498 96.5454 420.645 99.9327C417.792 103.214 414.463 106.284 410.659 109.142C406.855 111.894 402.101 114.223 396.395 116.128C390.794 117.928 384.877 118.827 378.643 118.827C370.401 118.827 362.741 117.61 355.661 115.175C348.687 112.635 342.612 109.089 337.434 104.537C332.256 99.8798 328.188 94.0579 325.23 87.0717C322.271 80.0854 320.792 72.2523 320.792 63.5725C320.792 46.4244 325.917 32.8753 336.166 22.9252C346.415 12.9751 359.835 8 376.424 8C384.877 8 392.696 9.42901 399.882 12.287C407.067 15.145 412.773 19.1145 416.999 24.1954C421.226 29.2763 423.339 34.8336 423.339 40.8671C423.339 47.8534 421.015 54.2045 416.365 59.9206C411.716 65.5307 405.693 68.3358 398.297 68.3358C394.07 68.3358 390.266 67.1714 386.885 64.8427C383.504 62.5139 381.813 59.1796 381.813 54.8396C381.813 52.8285 382.764 50.0234 384.666 46.4244C386.674 42.8254 387.677 40.285 387.677 38.803Z" fill="white" fill-opacity="0.75"/>
<path d="M487.087 95.4869C490.68 95.4869 493.744 93.8991 496.28 90.7236C498.921 87.548 500.77 83.6315 501.827 78.974C502.989 74.3165 503.571 69.3414 503.571 64.0488C503.571 58.6503 502.989 53.5694 501.827 48.8061C500.665 43.9369 498.763 39.8086 496.121 36.4213C493.585 33.0341 490.574 31.3404 487.087 31.3404C483.706 31.3404 480.747 33.0341 478.211 36.4213C475.675 39.8086 473.773 43.9369 472.505 48.8061C471.237 53.6753 470.603 58.7562 470.603 64.0488C470.603 69.3414 471.184 74.3165 472.347 78.974C473.615 83.6315 475.517 87.548 478.053 90.7236C480.694 93.8991 483.706 95.4869 487.087 95.4869ZM515.141 112.476C506.793 116.604 497.389 118.669 486.928 118.669C476.573 118.669 467.222 116.604 458.875 112.476C450.633 108.242 444.029 101.944 439.062 93.5816C434.096 85.2193 431.613 75.375 431.613 64.0488C431.613 46.9007 436.738 33.2987 446.987 23.2427C457.342 13.0809 470.709 8 487.087 8C503.465 8 516.831 13.0809 527.187 23.2427C537.542 33.2987 542.719 46.9007 542.719 64.0488C542.719 75.375 540.183 85.2193 535.111 93.5816C530.145 101.944 523.488 108.242 515.141 112.476Z" fill="white" fill-opacity="0.75"/>
<path d="M641.572 59.603L621.76 100.25C620.069 103.638 618.273 106.072 616.371 107.554C614.469 108.93 612.197 109.618 609.555 109.618C606.174 109.618 603.321 108.454 600.997 106.125C598.672 103.69 595.66 99.3505 591.962 93.1053L573.577 59.603V104.537C573.577 109.089 572.52 112.423 570.407 114.54C568.399 116.657 565.335 117.716 561.214 117.716C556.565 117.716 553.183 116.71 551.07 114.699C548.957 112.582 547.9 108.507 547.9 102.473V33.2458C547.9 25.0951 549.749 18.9557 553.448 14.8275C557.146 10.6992 563.38 8.63512 572.15 8.63512C575.426 8.63512 578.279 9.2173 580.709 10.3817C583.139 11.4402 584.936 12.7104 586.098 14.1924C587.366 15.5684 588.581 17.315 589.743 19.4321L610.982 65.9541L633.488 20.2259C637.398 12.6046 644.425 8.79389 654.568 8.79389C659.323 8.79389 663.391 9.64071 666.773 11.3344C670.154 12.9221 672.795 15.5684 674.697 19.2733C676.705 22.8723 677.709 27.4239 677.709 32.9282V101.997C677.603 112.476 670.999 117.716 657.897 117.716C653.142 117.716 649.232 116.446 646.168 113.905C643.209 111.259 641.677 107.025 641.572 101.203V59.603Z" fill="white" fill-opacity="0.75"/>
<path d="M749.067 53.2519C754.667 53.2519 758.577 54.1516 760.796 55.9511C763.12 57.7506 764.283 60.8203 764.283 65.1602C764.283 68.7592 762.909 71.3526 760.162 72.9404C757.52 74.4223 753.346 75.1633 747.641 75.1633H721.964V91.9938L756.358 92.1526C762.275 92.1526 766.502 93.0523 769.038 94.8518C771.679 96.5455 773 99.6152 773 104.061C773 109.142 771.468 112.688 768.404 114.699C765.445 116.71 760.901 117.716 754.773 117.716H703.42C697.186 117.716 692.589 116.075 689.631 112.794C686.778 109.407 685.351 103.479 685.351 95.0106V28.0061C685.351 15.3038 691.374 8.95267 703.42 8.95267H754.773C760.901 8.95267 765.445 9.90534 768.404 11.8107C771.468 13.716 773 17.1562 773 22.1313C773 26.7888 771.679 30.0702 769.038 31.9755C766.502 33.775 762.275 34.6748 756.358 34.6748H721.806V53.2519H749.067Z" fill="white" fill-opacity="0.75"/>
<path d="M371.805 255.985C371.805 262.019 371.066 266.835 369.586 270.434C368.107 273.927 366.047 276.362 363.405 277.738C360.869 279.114 357.488 279.802 353.261 279.802C347.027 279.802 342.484 278.162 339.631 274.88C336.883 271.493 335.457 265.565 335.351 257.097L335.034 198.508H321.562C314.905 198.508 309.886 197.449 306.505 195.332C303.229 193.215 301.591 189.457 301.591 184.059C301.591 180.777 302.225 178.184 303.493 176.279C304.867 174.373 306.875 173.05 309.516 172.309C312.158 171.462 315.698 171.039 320.136 171.039H387.972C393.889 171.039 398.169 172.098 400.81 174.215C403.452 176.332 404.773 179.984 404.773 185.17C404.773 188.663 403.98 191.416 402.395 193.427C400.916 195.332 398.908 196.655 396.372 197.396C393.836 198.137 390.561 198.508 386.546 198.508H371.805V255.985Z" fill="white" fill-opacity="0.75"/>
<path d="M452.261 257.573C455.854 257.573 458.918 255.985 461.454 252.81C464.095 249.634 465.945 245.718 467.001 241.06C468.164 236.403 468.745 231.428 468.745 226.135C468.745 220.737 468.164 215.656 467.001 210.892C465.839 206.023 463.937 201.895 461.295 198.508C458.759 195.12 455.748 193.427 452.261 193.427C448.88 193.427 445.921 195.12 443.385 198.508C440.849 201.895 438.947 206.023 437.679 210.892C436.411 215.762 435.777 220.843 435.777 226.135C435.777 231.428 436.359 236.403 437.521 241.06C438.789 245.718 440.691 249.634 443.227 252.81C445.868 255.985 448.88 257.573 452.261 257.573ZM480.315 274.563C471.967 278.691 462.563 280.755 452.103 280.755C441.747 280.755 432.396 278.691 424.049 274.563C415.807 270.328 409.203 264.03 404.237 255.668C399.27 247.306 396.787 237.461 396.787 226.135C396.787 208.987 401.912 195.385 412.161 185.329C422.517 175.167 435.883 170.086 452.261 170.086C468.639 170.086 482.006 175.167 492.361 185.329C502.716 195.385 507.893 208.987 507.893 226.135C507.893 237.461 505.357 247.306 500.286 255.668C495.319 264.03 488.662 270.328 480.315 274.563Z" fill="white" fill-opacity="0.75"/>
<path d="M128.488 332.014C141.062 332.014 151.787 334.607 160.663 339.794C169.539 344.981 173.977 350.485 173.977 356.307C173.977 357.895 173.607 359.271 172.867 360.435C172.233 361.494 171.388 362.288 170.331 362.817C169.38 363.24 168.324 363.452 167.162 363.452C165.26 363.452 162.407 362.499 158.603 360.594C154.799 358.583 150.572 356.625 145.923 354.719C141.274 352.708 136.994 351.702 133.085 351.702C126.851 351.702 123.733 354.243 123.733 359.324C123.733 360.912 124.209 362.446 125.16 363.928C126.217 365.304 127.854 366.786 130.073 368.374C132.292 369.856 134.458 371.179 136.572 372.344C138.685 373.508 141.591 375.096 145.289 377.107C148.987 379.012 152.104 380.706 154.64 382.188C162.776 386.845 168.482 391.291 171.758 395.525C175.034 399.759 176.671 404.629 176.671 410.133C176.671 432.044 161.931 443 132.451 443C126.639 443 120.986 442.418 115.492 441.253C110.103 440.089 105.348 438.554 101.227 436.649C97.2117 434.744 93.6191 432.626 90.4492 430.298C87.3849 427.969 85.0603 425.587 83.4753 423.153C81.8904 420.718 81.0979 418.442 81.0979 416.325C81.0979 413.996 81.8375 412.038 83.3168 410.45C84.9018 408.757 87.1736 407.91 90.1322 407.91C92.3512 407.91 97.6872 409.339 106.14 412.197C114.594 414.949 121.409 416.325 126.586 416.325C131.341 416.325 133.719 414.685 133.719 411.403C133.719 410.45 133.507 409.604 133.085 408.863C132.768 408.016 132.134 407.222 131.183 406.481C130.338 405.634 129.334 404.893 128.171 404.258C127.115 403.517 125.583 402.617 123.575 401.559C121.673 400.5 119.718 399.442 117.711 398.383C115.809 397.325 113.273 395.949 110.103 394.255C106.933 392.561 103.869 390.868 100.91 389.174C97.0004 386.951 93.6191 384.199 90.7662 380.918C88.0189 377.636 86.0113 374.408 84.7433 371.232C83.4753 367.951 82.8414 364.934 82.8414 362.182C82.8414 353.29 86.8038 346.039 94.7286 340.429C102.653 334.819 113.907 332.014 128.488 332.014Z" fill="white" fill-opacity="0.75"/>
<path d="M285.453 418.072C285.453 426.646 283.921 432.785 280.857 436.49C277.793 440.089 273.143 441.889 266.909 441.889C260.781 441.889 256.29 440.248 253.437 436.966C250.584 433.579 249.158 427.651 249.158 419.183L248.999 401.241H216.666V418.072C216.666 426.752 215.186 432.891 212.228 436.49C209.269 440.089 204.567 441.889 198.122 441.889C191.993 441.889 187.502 440.248 184.649 436.966C181.796 433.579 180.37 427.651 180.37 419.183L179.895 352.179C179.895 345.616 181.532 340.8 184.808 337.73C188.189 334.66 192.627 333.125 198.122 333.125C204.461 333.125 209.111 334.29 212.069 336.618C215.134 338.947 216.666 343.658 216.666 350.75V377.425H248.841V352.179C248.841 347.733 249.633 344.081 251.218 341.223C252.909 338.259 255.022 336.195 257.558 335.031C260.199 333.76 263.317 333.125 266.909 333.125C273.038 333.125 277.634 334.29 280.698 336.618C283.868 338.947 285.453 343.658 285.453 350.75V418.072Z" fill="white" fill-opacity="0.75"/>
<path d="M328.608 418.072C328.608 426.328 327.076 432.362 324.011 436.173C320.947 439.983 316.298 441.889 310.064 441.889C303.935 441.889 299.391 440.248 296.433 436.966C293.58 433.685 292.153 427.81 292.153 419.342V352.179C292.153 339.476 298.124 333.125 310.064 333.125C316.192 333.125 320.789 334.29 323.853 336.618C327.023 338.947 328.608 343.658 328.608 350.75V418.072Z" fill="white" fill-opacity="0.75"/>
<path d="M395.851 363.77C395.851 359.324 394.108 356.307 390.621 354.719C387.239 353.026 381.534 352.179 373.503 352.179V376.472C378.469 376.472 382.485 376.101 385.549 375.36C388.719 374.619 391.202 373.349 392.998 371.55C394.9 369.644 395.851 367.051 395.851 363.77ZM397.912 406.163C397.912 402.67 397.013 399.971 395.217 398.066C393.421 396.16 390.832 394.837 387.451 394.096C384.07 393.249 379.42 392.826 373.503 392.826V420.295C381.745 420.295 387.873 419.289 391.889 417.278C395.904 415.161 397.912 411.456 397.912 406.163ZM417.407 385.363C427.233 391.185 432.147 398.965 432.147 408.704C432.147 412.938 431.302 417.013 429.611 420.93C428.026 424.74 425.596 428.234 422.32 431.409C419.15 434.585 414.924 437.125 409.64 439.031C404.357 440.83 398.387 441.73 391.73 441.73H354.959C348.513 441.73 343.864 440.089 341.011 436.808C338.264 433.526 336.89 427.651 336.89 419.183V352.02C336.89 348.421 337.524 345.245 338.792 342.493C340.06 339.741 342.068 337.518 344.815 335.825C347.668 334.131 351.049 333.284 354.959 333.284H391.255C401.821 333.39 410.591 336.301 417.565 342.017C424.645 347.627 428.184 354.878 428.184 363.77C428.184 366.628 427.92 369.168 427.392 371.391C426.969 373.508 426.282 375.413 425.331 377.107C424.381 378.801 423.271 380.283 422.003 381.553C420.735 382.823 419.203 384.093 417.407 385.363Z" fill="white" fill-opacity="0.75"/>
<path d="M534.916 352.179V399.495C534.916 414.949 531.165 426.064 523.663 432.838C516.266 439.507 503.745 442.841 486.099 442.841C469.298 442.841 456.935 439.242 449.011 432.044C441.191 424.846 437.282 413.996 437.282 399.495V352.179C437.282 346.569 438.92 342.017 442.195 338.524C445.577 334.925 449.803 333.125 454.875 333.125C461.109 333.125 465.811 334.29 468.981 336.618C472.257 338.947 473.895 343.658 473.895 350.75V402.512C474 405.899 474.529 408.598 475.48 410.609C476.536 412.62 477.91 414.049 479.6 414.896C481.291 415.637 483.457 416.008 486.099 416.008C488.74 416.008 490.907 415.69 492.597 415.055C494.288 414.42 495.503 413.414 496.243 412.038C497.088 410.662 497.616 409.286 497.828 407.91C498.145 406.534 498.303 404.734 498.303 402.512V350.591C498.303 346.992 498.726 343.975 499.571 341.541C500.522 339.106 501.896 337.307 503.692 336.142C505.594 334.978 507.496 334.184 509.398 333.76C511.405 333.337 513.783 333.125 516.53 333.125C522.659 333.125 527.255 334.607 530.319 337.571C533.384 340.535 534.916 345.404 534.916 352.179Z" fill="white" fill-opacity="0.75"/>
<path d="M605.971 418.072C605.971 426.646 604.438 432.785 601.374 436.49C598.31 440.089 593.608 441.889 587.268 441.889C581.139 441.889 576.649 440.248 573.796 436.966C570.943 433.579 569.463 427.651 569.358 419.183L569.199 393.461L544.791 364.881C540.353 359.8 538.134 355.407 538.134 351.702C538.134 345.881 540.353 341.276 544.791 337.889C549.017 334.713 552.769 333.125 556.044 333.125C560.588 333.125 564.656 335.189 568.248 339.318L587.585 361.864L603.752 342.97C609.14 336.513 614.899 333.284 621.028 333.284C625.571 333.284 629.111 334.554 631.647 337.095C635.979 341.435 638.145 345.616 638.145 349.638C638.145 351.861 637.406 354.243 635.926 356.783C634.447 359.218 632.07 362.393 628.794 366.31L605.971 394.255V418.072Z" fill="white" fill-opacity="0.75"/>
<path d="M679.534 359.006C674.991 359.006 671.609 360.329 669.39 362.976C667.277 365.622 666.22 370.332 666.22 377.107V395.843H692.531V376.789C692.531 372.344 692.002 368.798 690.946 366.151C689.889 363.399 688.41 361.547 686.508 360.594C684.712 359.535 682.387 359.006 679.534 359.006ZM692.531 417.754H666.22V426.169C666.22 431.568 664.794 435.537 661.941 438.078C659.088 440.618 654.175 441.889 647.201 441.889C644.242 441.889 641.812 441.465 639.91 440.618C638.008 439.771 636.317 438.343 634.838 436.331C633.464 434.32 632.408 431.409 631.668 427.598C631.034 423.682 630.506 419.024 630.083 413.626C629.766 408.122 629.608 401.188 629.608 392.826C629.608 385.522 630.347 378.854 631.827 372.82C633.412 366.681 635.472 361.494 638.008 357.26C640.65 353.026 643.608 349.321 646.884 346.145C650.159 342.864 653.699 340.323 657.503 338.524C661.413 336.724 665.164 335.401 668.756 334.554C672.455 333.602 676.153 333.125 679.851 333.125C684.289 333.125 688.674 333.76 693.006 335.031C697.339 336.195 701.724 338.259 706.161 341.223C710.599 344.187 714.456 347.892 717.732 352.338C721.113 356.677 723.86 362.341 725.974 369.327C728.087 376.313 729.144 384.146 729.144 392.826C729.144 406.799 728.615 417.172 727.559 423.947C726.608 430.615 724.917 435.273 722.487 437.919C720.162 440.565 716.517 441.889 711.55 441.889C704.577 441.889 699.663 440.618 696.81 438.078C693.957 435.537 692.531 431.568 692.531 426.169V417.754Z" fill="white" fill-opacity="0.75"/>
<path d="M104.841 92.7877C108.962 92.7877 111.815 90.5648 113.4 86.119C114.985 81.5673 115.778 74.2106 115.778 64.0488L116.095 25.1481C116.095 19.5379 117.363 15.4626 119.899 12.9221C122.54 10.2758 127.031 8.95267 133.371 8.95267C137.28 8.95267 140.398 9.58778 142.722 10.858C145.152 12.1282 147.213 14.6158 148.903 18.3206C150.594 22.0254 151.756 27.0534 152.39 33.4046C153.024 39.7557 153.341 48.171 153.341 58.6503C153.341 64.8956 152.813 70.7175 151.756 76.116C150.7 81.5144 149.273 86.2249 147.477 90.2472C145.681 94.2696 143.515 97.9215 140.979 101.203C138.548 104.379 135.96 107.025 133.212 109.142C130.465 111.259 127.559 113.058 124.495 114.54C121.431 115.916 118.419 116.922 115.461 117.557C112.608 118.086 109.808 118.351 107.06 118.351C97.5506 118.351 88.9389 115.334 81.2254 109.301C73.6176 115.546 65.0059 118.669 55.3905 118.669C51.2696 118.669 47.1487 118.086 43.0277 116.922C38.9068 115.652 34.6803 113.535 30.348 110.571C26.1214 107.607 22.3704 103.955 19.0948 99.6152C15.8192 95.1694 13.1247 89.4533 11.0114 82.4671C9.00381 75.375 8 67.5419 8 58.9679C8 45.1012 8.63399 34.6219 9.90196 27.5298C11.2756 20.4376 13.2832 15.6214 15.9248 13.0809C18.6721 10.5405 22.6345 9.27023 27.8121 9.27023C32.1443 9.27023 35.5784 9.90535 38.1144 11.1756C40.6503 12.3399 42.4466 14.0865 43.5032 16.4153C44.5599 18.744 45.0882 21.7608 45.0882 25.4656L45.2467 64.2076C45.2467 74.3694 46.0392 81.7261 47.6242 86.2778C49.2091 90.8294 52.3262 93.1053 56.9755 93.1053C59.3001 93.1053 61.0435 92.1526 62.2058 90.2472C63.3682 88.236 64.1606 85.0605 64.5833 80.7205C63.2097 74.5811 62.5228 65.0015 62.5228 51.9816C62.5228 44.6778 62.6813 38.8559 62.9983 34.516C63.3153 30.1761 63.7908 26.4183 64.4248 23.2427C65.0588 20.0672 66.1154 17.7913 67.5947 16.4153C69.074 15.0392 70.7118 14.0865 72.5081 13.5572C74.4101 12.9221 76.9989 12.6046 80.2745 12.6046C82.1764 12.6046 83.8142 12.6575 85.1879 12.7634C86.6672 12.8692 88.0408 13.1868 89.3088 13.716C90.5767 14.2453 91.6334 14.7216 92.4787 15.145C93.324 15.5684 94.1165 16.3623 94.8561 17.5267C95.5958 18.6911 96.177 19.6967 96.5996 20.5435C97.0223 21.3903 97.3921 22.7664 97.7091 24.6717C98.1317 26.5771 98.3959 28.2707 98.5016 29.7527C98.7129 31.1287 98.8186 33.2458 98.8186 36.1038C98.9242 38.8559 98.9771 41.2905 98.9771 43.4076C99.0827 45.4188 99.1356 48.3297 99.1356 52.1404C99.1356 65.4778 98.4487 75.3221 97.0751 81.6732C97.4978 85.4839 98.2902 88.289 99.4525 90.0885C100.615 91.888 102.411 92.7877 104.841 92.7877Z" stroke="#EF598F" stroke-width="16" mask="url(#path-1-outside-1_42_3)"/>
<path d="M222.53 53.2519C228.13 53.2519 232.04 54.1516 234.259 55.9511C236.583 57.7506 237.746 60.8203 237.746 65.1602C237.746 68.7592 236.372 71.3526 233.625 72.9404C230.983 74.4223 226.81 75.1633 221.104 75.1633H195.427V91.9938L229.821 92.1526C235.738 92.1526 239.965 93.0523 242.501 94.8518C245.142 96.5455 246.463 99.6152 246.463 104.061C246.463 109.142 244.931 112.688 241.867 114.699C238.908 116.71 234.365 117.716 228.236 117.716H176.883C170.649 117.716 166.052 116.075 163.094 112.794C160.241 109.407 158.814 103.479 158.814 95.0106V28.0061C158.814 15.3038 164.837 8.95267 176.883 8.95267H228.236C234.365 8.95267 238.908 9.90534 241.867 11.8107C244.931 13.716 246.463 17.1562 246.463 22.1313C246.463 26.7888 245.142 30.0702 242.501 31.9755C239.965 33.775 235.738 34.6748 229.821 34.6748H195.269V53.2519H222.53Z" stroke="#EF598F" stroke-width="16" mask="url(#path-1-outside-1_42_3)"/>
<path d="M271.327 117.716C266.467 117.61 262.557 116.869 259.598 115.493C256.64 114.011 254.421 111.629 252.942 108.348C251.462 105.067 250.723 100.674 250.723 95.1694V28.0061C250.723 22.3959 252.36 17.8443 255.636 14.3511C258.912 10.7522 263.244 8.95267 268.633 8.95267C274.973 8.95267 279.622 10.117 282.58 12.4458C285.645 14.7745 287.177 19.485 287.177 26.5771V90.2472H314.28C320.408 90.2472 324.688 91.147 327.118 92.9465C329.654 94.746 330.922 98.4508 330.922 104.061C330.922 109.777 329.496 113.482 326.643 115.175C323.79 116.869 319.14 117.716 312.695 117.716H271.327Z" stroke="#EF598F" stroke-width="16" mask="url(#path-1-outside-1_42_3)"/>
<path d="M387.677 38.803C387.677 36.5801 386.726 34.6748 384.824 33.087C383.028 31.4992 380.862 30.7053 378.326 30.7053C373.254 30.7053 369.08 33.6163 365.805 39.4381C362.529 45.1542 360.891 51.6641 360.891 58.9679C360.891 64.5781 361.948 69.659 364.061 74.2106C366.175 78.6564 369.239 82.2025 373.254 84.8488C377.269 87.4951 381.919 88.8182 387.202 88.8182C391.111 88.8182 394.863 88.0773 398.455 86.5953C402.048 85.0076 404.954 83.3139 407.172 81.5144C409.391 79.6091 411.663 77.9154 413.988 76.4335C416.418 74.8457 418.531 74.0518 420.328 74.0518C422.652 74.0518 424.66 75.0045 426.351 76.9099C428.041 78.7093 428.887 80.6147 428.887 82.6259C428.887 84.8488 428.2 87.4422 426.826 90.406C425.558 93.3699 423.498 96.5454 420.645 99.9327C417.792 103.214 414.463 106.284 410.659 109.142C406.855 111.894 402.101 114.223 396.395 116.128C390.794 117.928 384.877 118.827 378.643 118.827C370.401 118.827 362.741 117.61 355.661 115.175C348.687 112.635 342.612 109.089 337.434 104.537C332.256 99.8798 328.188 94.0579 325.23 87.0717C322.271 80.0854 320.792 72.2523 320.792 63.5725C320.792 46.4244 325.917 32.8753 336.166 22.9252C346.415 12.9751 359.835 8 376.424 8C384.877 8 392.696 9.42901 399.882 12.287C407.067 15.145 412.773 19.1145 416.999 24.1954C421.226 29.2763 423.339 34.8336 423.339 40.8671C423.339 47.8534 421.015 54.2045 416.365 59.9206C411.716 65.5307 405.693 68.3358 398.297 68.3358C394.07 68.3358 390.266 67.1714 386.885 64.8427C383.504 62.5139 381.813 59.1796 381.813 54.8396C381.813 52.8285 382.764 50.0234 384.666 46.4244C386.674 42.8254 387.677 40.285 387.677 38.803Z" stroke="#EF598F" stroke-width="16" mask="url(#path-1-outside-1_42_3)"/>
<path d="M487.087 95.4869C490.68 95.4869 493.744 93.8991 496.28 90.7236C498.921 87.548 500.77 83.6315 501.827 78.974C502.989 74.3165 503.571 69.3414 503.571 64.0488C503.571 58.6503 502.989 53.5694 501.827 48.8061C500.665 43.9369 498.763 39.8086 496.121 36.4213C493.585 33.0341 490.574 31.3404 487.087 31.3404C483.706 31.3404 480.747 33.0341 478.211 36.4213C475.675 39.8086 473.773 43.9369 472.505 48.8061C471.237 53.6753 470.603 58.7562 470.603 64.0488C470.603 69.3414 471.184 74.3165 472.347 78.974C473.615 83.6315 475.517 87.548 478.053 90.7236C480.694 93.8991 483.706 95.4869 487.087 95.4869ZM515.141 112.476C506.793 116.604 497.389 118.669 486.928 118.669C476.573 118.669 467.222 116.604 458.875 112.476C450.633 108.242 444.029 101.944 439.062 93.5816C434.096 85.2193 431.613 75.375 431.613 64.0488C431.613 46.9007 436.738 33.2987 446.987 23.2427C457.342 13.0809 470.709 8 487.087 8C503.465 8 516.831 13.0809 527.187 23.2427C537.542 33.2987 542.719 46.9007 542.719 64.0488C542.719 75.375 540.183 85.2193 535.111 93.5816C530.145 101.944 523.488 108.242 515.141 112.476Z" stroke="#EF598F" stroke-width="16" mask="url(#path-1-outside-1_42_3)"/>
<path d="M641.572 59.603L621.76 100.25C620.069 103.638 618.273 106.072 616.371 107.554C614.469 108.93 612.197 109.618 609.555 109.618C606.174 109.618 603.321 108.454 600.997 106.125C598.672 103.69 595.66 99.3505 591.962 93.1053L573.577 59.603V104.537C573.577 109.089 572.52 112.423 570.407 114.54C568.399 116.657 565.335 117.716 561.214 117.716C556.565 117.716 553.183 116.71 551.07 114.699C548.957 112.582 547.9 108.507 547.9 102.473V33.2458C547.9 25.0951 549.749 18.9557 553.448 14.8275C557.146 10.6992 563.38 8.63512 572.15 8.63512C575.426 8.63512 578.279 9.2173 580.709 10.3817C583.139 11.4402 584.936 12.7104 586.098 14.1924C587.366 15.5684 588.581 17.315 589.743 19.4321L610.982 65.9541L633.488 20.2259C637.398 12.6046 644.425 8.79389 654.568 8.79389C659.323 8.79389 663.391 9.64071 666.773 11.3344C670.154 12.9221 672.795 15.5684 674.697 19.2733C676.705 22.8723 677.709 27.4239 677.709 32.9282V101.997C677.603 112.476 670.999 117.716 657.897 117.716C653.142 117.716 649.232 116.446 646.168 113.905C643.209 111.259 641.677 107.025 641.572 101.203V59.603Z" stroke="#EF598F" stroke-width="16" mask="url(#path-1-outside-1_42_3)"/>
<path d="M749.067 53.2519C754.667 53.2519 758.577 54.1516 760.796 55.9511C763.12 57.7506 764.283 60.8203 764.283 65.1602C764.283 68.7592 762.909 71.3526 760.162 72.9404C757.52 74.4223 753.346 75.1633 747.641 75.1633H721.964V91.9938L756.358 92.1526C762.275 92.1526 766.502 93.0523 769.038 94.8518C771.679 96.5455 773 99.6152 773 104.061C773 109.142 771.468 112.688 768.404 114.699C765.445 116.71 760.901 117.716 754.773 117.716H703.42C697.186 117.716 692.589 116.075 689.631 112.794C686.778 109.407 685.351 103.479 685.351 95.0106V28.0061C685.351 15.3038 691.374 8.95267 703.42 8.95267H754.773C760.901 8.95267 765.445 9.90534 768.404 11.8107C771.468 13.716 773 17.1562 773 22.1313C773 26.7888 771.679 30.0702 769.038 31.9755C766.502 33.775 762.275 34.6748 756.358 34.6748H721.806V53.2519H749.067Z" stroke="#EF598F" stroke-width="16" mask="url(#path-1-outside-1_42_3)"/>
<path d="M371.805 255.985C371.805 262.019 371.066 266.835 369.586 270.434C368.107 273.927 366.047 276.362 363.405 277.738C360.869 279.114 357.488 279.802 353.261 279.802C347.027 279.802 342.484 278.162 339.631 274.88C336.883 271.493 335.457 265.565 335.351 257.097L335.034 198.508H321.562C314.905 198.508 309.886 197.449 306.505 195.332C303.229 193.215 301.591 189.457 301.591 184.059C301.591 180.777 302.225 178.184 303.493 176.279C304.867 174.373 306.875 173.05 309.516 172.309C312.158 171.462 315.698 171.039 320.136 171.039H387.972C393.889 171.039 398.169 172.098 400.81 174.215C403.452 176.332 404.773 179.984 404.773 185.17C404.773 188.663 403.98 191.416 402.395 193.427C400.916 195.332 398.908 196.655 396.372 197.396C393.836 198.137 390.561 198.508 386.546 198.508H371.805V255.985Z" stroke="#EF598F" stroke-width="16" mask="url(#path-1-outside-1_42_3)"/>
<path d="M452.261 257.573C455.854 257.573 458.918 255.985 461.454 252.81C464.095 249.634 465.945 245.718 467.001 241.06C468.164 236.403 468.745 231.428 468.745 226.135C468.745 220.737 468.164 215.656 467.001 210.892C465.839 206.023 463.937 201.895 461.295 198.508C458.759 195.12 455.748 193.427 452.261 193.427C448.88 193.427 445.921 195.12 443.385 198.508C440.849 201.895 438.947 206.023 437.679 210.892C436.411 215.762 435.777 220.843 435.777 226.135C435.777 231.428 436.359 236.403 437.521 241.06C438.789 245.718 440.691 249.634 443.227 252.81C445.868 255.985 448.88 257.573 452.261 257.573ZM480.315 274.563C471.967 278.691 462.563 280.755 452.103 280.755C441.747 280.755 432.396 278.691 424.049 274.563C415.807 270.328 409.203 264.03 404.237 255.668C399.27 247.306 396.787 237.461 396.787 226.135C396.787 208.987 401.912 195.385 412.161 185.329C422.517 175.167 435.883 170.086 452.261 170.086C468.639 170.086 482.006 175.167 492.361 185.329C502.716 195.385 507.893 208.987 507.893 226.135C507.893 237.461 505.357 247.306 500.286 255.668C495.319 264.03 488.662 270.328 480.315 274.563Z" stroke="#EF598F" stroke-width="16" mask="url(#path-1-outside-1_42_3)"/>
<path d="M128.488 332.014C141.062 332.014 151.787 334.607 160.663 339.794C169.539 344.981 173.977 350.485 173.977 356.307C173.977 357.895 173.607 359.271 172.867 360.435C172.233 361.494 171.388 362.288 170.331 362.817C169.38 363.24 168.324 363.452 167.162 363.452C165.26 363.452 162.407 362.499 158.603 360.594C154.799 358.583 150.572 356.625 145.923 354.719C141.274 352.708 136.994 351.702 133.085 351.702C126.851 351.702 123.733 354.243 123.733 359.324C123.733 360.912 124.209 362.446 125.16 363.928C126.217 365.304 127.854 366.786 130.073 368.374C132.292 369.856 134.458 371.179 136.572 372.344C138.685 373.508 141.591 375.096 145.289 377.107C148.987 379.012 152.104 380.706 154.64 382.188C162.776 386.845 168.482 391.291 171.758 395.525C175.034 399.759 176.671 404.629 176.671 410.133C176.671 432.044 161.931 443 132.451 443C126.639 443 120.986 442.418 115.492 441.253C110.103 440.089 105.348 438.554 101.227 436.649C97.2117 434.744 93.6191 432.626 90.4492 430.298C87.3849 427.969 85.0603 425.587 83.4753 423.153C81.8904 420.718 81.0979 418.442 81.0979 416.325C81.0979 413.996 81.8375 412.038 83.3168 410.45C84.9018 408.757 87.1736 407.91 90.1322 407.91C92.3512 407.91 97.6872 409.339 106.14 412.197C114.594 414.949 121.409 416.325 126.586 416.325C131.341 416.325 133.719 414.685 133.719 411.403C133.719 410.45 133.507 409.604 133.085 408.863C132.768 408.016 132.134 407.222 131.183 406.481C130.338 405.634 129.334 404.893 128.171 404.258C127.115 403.517 125.583 402.617 123.575 401.559C121.673 400.5 119.718 399.442 117.711 398.383C115.809 397.325 113.273 395.949 110.103 394.255C106.933 392.561 103.869 390.868 100.91 389.174C97.0004 386.951 93.6191 384.199 90.7662 380.918C88.0189 377.636 86.0113 374.408 84.7433 371.232C83.4753 367.951 82.8414 364.934 82.8414 362.182C82.8414 353.29 86.8038 346.039 94.7286 340.429C102.653 334.819 113.907 332.014 128.488 332.014Z" stroke="#EF598F" stroke-width="16" mask="url(#path-1-outside-1_42_3)"/>
<path d="M285.453 418.072C285.453 426.646 283.921 432.785 280.857 436.49C277.793 440.089 273.143 441.889 266.909 441.889C260.781 441.889 256.29 440.248 253.437 436.966C250.584 433.579 249.158 427.651 249.158 419.183L248.999 401.241H216.666V418.072C216.666 426.752 215.186 432.891 212.228 436.49C209.269 440.089 204.567 441.889 198.122 441.889C191.993 441.889 187.502 440.248 184.649 436.966C181.796 433.579 180.37 427.651 180.37 419.183L179.895 352.179C179.895 345.616 181.532 340.8 184.808 337.73C188.189 334.66 192.627 333.125 198.122 333.125C204.461 333.125 209.111 334.29 212.069 336.618C215.134 338.947 216.666 343.658 216.666 350.75V377.425H248.841V352.179C248.841 347.733 249.633 344.081 251.218 341.223C252.909 338.259 255.022 336.195 257.558 335.031C260.199 333.76 263.317 333.125 266.909 333.125C273.038 333.125 277.634 334.29 280.698 336.618C283.868 338.947 285.453 343.658 285.453 350.75V418.072Z" stroke="#EF598F" stroke-width="16" mask="url(#path-1-outside-1_42_3)"/>
<path d="M328.608 418.072C328.608 426.328 327.076 432.362 324.011 436.173C320.947 439.983 316.298 441.889 310.064 441.889C303.935 441.889 299.391 440.248 296.433 436.966C293.58 433.685 292.153 427.81 292.153 419.342V352.179C292.153 339.476 298.124 333.125 310.064 333.125C316.192 333.125 320.789 334.29 323.853 336.618C327.023 338.947 328.608 343.658 328.608 350.75V418.072Z" stroke="#EF598F" stroke-width="16" mask="url(#path-1-outside-1_42_3)"/>
<path d="M395.851 363.77C395.851 359.324 394.108 356.307 390.621 354.719C387.239 353.026 381.534 352.179 373.503 352.179V376.472C378.469 376.472 382.485 376.101 385.549 375.36C388.719 374.619 391.202 373.349 392.998 371.55C394.9 369.644 395.851 367.051 395.851 363.77ZM397.912 406.163C397.912 402.67 397.013 399.971 395.217 398.066C393.421 396.16 390.832 394.837 387.451 394.096C384.07 393.249 379.42 392.826 373.503 392.826V420.295C381.745 420.295 387.873 419.289 391.889 417.278C395.904 415.161 397.912 411.456 397.912 406.163ZM417.407 385.363C427.233 391.185 432.147 398.965 432.147 408.704C432.147 412.938 431.302 417.013 429.611 420.93C428.026 424.74 425.596 428.234 422.32 431.409C419.15 434.585 414.924 437.125 409.64 439.031C404.357 440.83 398.387 441.73 391.73 441.73H354.959C348.513 441.73 343.864 440.089 341.011 436.808C338.264 433.526 336.89 427.651 336.89 419.183V352.02C336.89 348.421 337.524 345.245 338.792 342.493C340.06 339.741 342.068 337.518 344.815 335.825C347.668 334.131 351.049 333.284 354.959 333.284H391.255C401.821 333.39 410.591 336.301 417.565 342.017C424.645 347.627 428.184 354.878 428.184 363.77C428.184 366.628 427.92 369.168 427.392 371.391C426.969 373.508 426.282 375.413 425.331 377.107C424.381 378.801 423.271 380.283 422.003 381.553C420.735 382.823 419.203 384.093 417.407 385.363Z" stroke="#EF598F" stroke-width="16" mask="url(#path-1-outside-1_42_3)"/>
<path d="M534.916 352.179V399.495C534.916 414.949 531.165 426.064 523.663 432.838C516.266 439.507 503.745 442.841 486.099 442.841C469.298 442.841 456.935 439.242 449.011 432.044C441.191 424.846 437.282 413.996 437.282 399.495V352.179C437.282 346.569 438.92 342.017 442.195 338.524C445.577 334.925 449.803 333.125 454.875 333.125C461.109 333.125 465.811 334.29 468.981 336.618C472.257 338.947 473.895 343.658 473.895 350.75V402.512C474 405.899 474.529 408.598 475.48 410.609C476.536 412.62 477.91 414.049 479.6 414.896C481.291 415.637 483.457 416.008 486.099 416.008C488.74 416.008 490.907 415.69 492.597 415.055C494.288 414.42 495.503 413.414 496.243 412.038C497.088 410.662 497.616 409.286 497.828 407.91C498.145 406.534 498.303 404.734 498.303 402.512V350.591C498.303 346.992 498.726 343.975 499.571 341.541C500.522 339.106 501.896 337.307 503.692 336.142C505.594 334.978 507.496 334.184 509.398 333.76C511.405 333.337 513.783 333.125 516.53 333.125C522.659 333.125 527.255 334.607 530.319 337.571C533.384 340.535 534.916 345.404 534.916 352.179Z" stroke="#EF598F" stroke-width="16" mask="url(#path-1-outside-1_42_3)"/>
<path d="M605.971 418.072C605.971 426.646 604.438 432.785 601.374 436.49C598.31 440.089 593.608 441.889 587.268 441.889C581.139 441.889 576.649 440.248 573.796 436.966C570.943 433.579 569.463 427.651 569.358 419.183L569.199 393.461L544.791 364.881C540.353 359.8 538.134 355.407 538.134 351.702C538.134 345.881 540.353 341.276 544.791 337.889C549.017 334.713 552.769 333.125 556.044 333.125C560.588 333.125 564.656 335.189 568.248 339.318L587.585 361.864L603.752 342.97C609.14 336.513 614.899 333.284 621.028 333.284C625.571 333.284 629.111 334.554 631.647 337.095C635.979 341.435 638.145 345.616 638.145 349.638C638.145 351.861 637.406 354.243 635.926 356.783C634.447 359.218 632.07 362.393 628.794 366.31L605.971 394.255V418.072Z" stroke="#EF598F" stroke-width="16" mask="url(#path-1-outside-1_42_3)"/>
<path d="M679.534 359.006C674.991 359.006 671.609 360.329 669.39 362.976C667.277 365.622 666.22 370.332 666.22 377.107V395.843H692.531V376.789C692.531 372.344 692.002 368.798 690.946 366.151C689.889 363.399 688.41 361.547 686.508 360.594C684.712 359.535 682.387 359.006 679.534 359.006ZM692.531 417.754H666.22V426.169C666.22 431.568 664.794 435.537 661.941 438.078C659.088 440.618 654.175 441.889 647.201 441.889C644.242 441.889 641.812 441.465 639.91 440.618C638.008 439.771 636.317 438.343 634.838 436.331C633.464 434.32 632.408 431.409 631.668 427.598C631.034 423.682 630.506 419.024 630.083 413.626C629.766 408.122 629.608 401.188 629.608 392.826C629.608 385.522 630.347 378.854 631.827 372.82C633.412 366.681 635.472 361.494 638.008 357.26C640.65 353.026 643.608 349.321 646.884 346.145C650.159 342.864 653.699 340.323 657.503 338.524C661.413 336.724 665.164 335.401 668.756 334.554C672.455 333.602 676.153 333.125 679.851 333.125C684.289 333.125 688.674 333.76 693.006 335.031C697.339 336.195 701.724 338.259 706.161 341.223C710.599 344.187 714.456 347.892 717.732 352.338C721.113 356.677 723.86 362.341 725.974 369.327C728.087 376.313 729.144 384.146 729.144 392.826C729.144 406.799 728.615 417.172 727.559 423.947C726.608 430.615 724.917 435.273 722.487 437.919C720.162 440.565 716.517 441.889 711.55 441.889C704.577 441.889 699.663 440.618 696.81 438.078C693.957 435.537 692.531 431.568 692.531 426.169V417.754Z" stroke="#EF598F" stroke-width="16" mask="url(#path-1-outside-1_42_3)"/>
</svg>
